<?xml version="1.0" encoding="UTF-8" standalone="no"?>
<svg
   xmlns:dc="http://purl.org/dc/elements/1.1/"
   xmlns:cc="http://creativecommons.org/ns#"
   xmlns:rdf="http://www.w3.org/1999/02/22-rdf-syntax-ns#"
   xmlns:svg="http://www.w3.org/2000/svg"
   xmlns="http://www.w3.org/2000/svg"
   xmlns:sodipodi="http://sodipodi.sourceforge.net/DTD/sodipodi-0.dtd"
   xmlns:inkscape="http://www.inkscape.org/namespaces/inkscape"
   inkscape:version="1.0beta2 (2b71d25, 2019-12-03)"
   sodipodi:docname="NeoTrellisGrid_Enclosure_Base+2.svg"
   viewBox="0 0 793.70079 1122.5197"
   width="210mm"
   height="297mm"
   version="1.1"
   id="svg430">
  <sodipodi:namedview
     inkscape:current-layer="svg430"
     inkscape:window-maximized="0"
     inkscape:window-y="23"
     inkscape:window-x="0"
     inkscape:cy="607.73359"
     inkscape:cx="413.39032"
     inkscape:zoom="0.79118979"
     showgrid="false"
     id="namedview1093"
     inkscape:window-height="1299"
     inkscape:window-width="1761"
     inkscape:pageshadow="2"
     inkscape:pageopacity="0"
     guidetolerance="10"
     gridtolerance="10"
     objecttolerance="10"
     borderopacity="1"
     inkscape:document-rotation="0"
     bordercolor="#666666"
     pagecolor="#ffffff" />
  <metadata
     id="metadata434">
    <rdf:RDF>
      <cc:Work
         rdf:about="">
        <dc:format>image/svg+xml</dc:format>
        <dc:type
           rdf:resource="http://purl.org/dc/dcmitype/StillImage" />
        <dc:title />
      </cc:Work>
    </rdf:RDF>
  </metadata>
  <defs
     id="defs40">
    <marker
       id="DistanceX"
       orient="auto"
       refX="0"
       refY="0"
       style="overflow:visible">
      <path
         d="M 3,-3 -3,3 M 0,-5 V 5"
         style="stroke:#000000;stroke-width:0.5"
         id="path28" />
    </marker>
    <pattern
       id="Hatch"
       patternUnits="userSpaceOnUse"
       width="8"
       height="8"
       x="0"
       y="0">
      <path
         d="M8 4 l-4,4"
         stroke="#000000"
         stroke-width="0.25"
         linecap="square"
         id="path31" />
      <path
         d="M6 2 l-4,4"
         stroke="#000000"
         stroke-width="0.25"
         linecap="square"
         id="path33" />
      <path
         d="M4 0 l-4,4"
         stroke="#000000"
         stroke-width="0.25"
         linecap="square"
         id="path35" />
    </pattern>
    <symbol
       id="*MODEL_SPACE" />
    <symbol
       id="*PAPER_SPACE" />
  </defs>
  <g
     style="stroke:#0000ff;stroke-opacity:1;stroke-width:0.09448819;stroke-miterlimit:4;stroke-dasharray:none"
     id="g426">
    <g
       style="stroke:#0000ff;stroke-opacity:1;stroke-width:0.09448819;stroke-miterlimit:4;stroke-dasharray:none"
       id="g628"
       transform="rotate(90,453.6357,983.14645)">
      <path
         id="path42"
         style="fill:none;stroke:#0000ff;stroke-opacity:1;stroke-width:0.09448819;stroke-miterlimit:4;stroke-dasharray:none"
         d="m -457.79425,1198.1111 a 7.275591,7.275591 0 1 0 -14.55118,0 7.275591,7.275591 0 1 0 14.55118,0 z" />
      <path
         id="path44"
         style="fill:none;stroke:#0000ff;stroke-opacity:1;stroke-width:0.09448819;stroke-miterlimit:4;stroke-dasharray:none"
         d="m -457.79425,1046.93 a 7.275591,7.275591 0 1 0 -14.55118,0 7.275591,7.275591 0 1 0 14.55118,0 z" />
      <path
         id="path46"
         style="fill:none;stroke:#0000ff;stroke-opacity:1;stroke-width:0.09448819;stroke-miterlimit:4;stroke-dasharray:none"
         d="m 472.34649,1198.1111 a 7.275595,7.275595 0 1 0 -14.55119,0 7.275595,7.275595 0 1 0 14.55119,0 z" />
      <path
         id="path48"
         style="fill:none;stroke:#0000ff;stroke-opacity:1;stroke-width:0.09448819;stroke-miterlimit:4;stroke-dasharray:none"
         d="m 472.34649,1046.93 a 7.275595,7.275595 0 1 0 -14.55119,0 7.275595,7.275595 0 1 0 14.55119,0 z" />
      <path
         id="path50"
         style="fill:none;stroke:#0000ff;stroke-opacity:1;stroke-width:0.09448819;stroke-miterlimit:4;stroke-dasharray:none"
         d="m -162.04557,884.40944 a 7.275591,7.275591 0 1 0 -14.55118,0 7.275591,7.275591 0 1 0 14.55118,0 z" />
      <path
         id="path52"
         style="fill:none;stroke:#0000ff;stroke-opacity:1;stroke-width:0.09448819;stroke-miterlimit:4;stroke-dasharray:none"
         d="m 178.11185,884.40944 a 7.275591,7.275591 0 1 0 -14.55118,0 7.275591,7.275591 0 1 0 14.55118,0 z" />
      <path
         id="path54"
         style="fill:none;stroke:#0000ff;stroke-opacity:1;stroke-width:0.09448819;stroke-miterlimit:4;stroke-dasharray:none"
         d="m -457.79425,884.40944 a 7.275591,7.275591 0 1 0 -14.55118,0 7.275591,7.275591 0 1 0 14.55118,0 z" />
      <path
         id="path56"
         style="fill:none;stroke:#0000ff;stroke-opacity:1;stroke-width:0.09448819;stroke-miterlimit:4;stroke-dasharray:none"
         d="m 472.34649,884.40944 a 7.275595,7.275595 0 1 0 -14.55119,0 7.275595,7.275595 0 1 0 14.55119,0 z" />
      <path
         id="path58"
         style="fill:none;stroke:#0000ff;stroke-opacity:1;stroke-width:0.09448819;stroke-miterlimit:4;stroke-dasharray:none"
         d="m -457.7953,1360.6299 a 7.275595,7.275595 0 1 0 -14.55119,0 7.275595,7.275595 0 1 0 14.55119,0 z" />
      <path
         id="path60"
         style="fill:none;stroke:#0000ff;stroke-opacity:1;stroke-width:0.09448819;stroke-miterlimit:4;stroke-dasharray:none"
         d="m -162.04615,1360.6299 a 7.275591,7.275591 0 1 0 -14.55118,0 7.275591,7.275591 0 1 0 14.55118,0 z" />
      <path
         id="path62"
         style="fill:none;stroke:#0000ff;stroke-opacity:1;stroke-width:0.09448819;stroke-miterlimit:4;stroke-dasharray:none"
         d="m 178.11199,1360.6299 a 7.275595,7.275595 0 1 0 -14.55119,0 7.275595,7.275595 0 1 0 14.55119,0 z" />
      <path
         id="path64"
         style="fill:none;stroke:#0000ff;stroke-opacity:1;stroke-width:0.09448819;stroke-miterlimit:4;stroke-dasharray:none"
         d="m 472.34649,1360.6299 a 7.275595,7.275595 0 1 0 -14.55119,0 7.275595,7.275595 0 1 0 14.55119,0 z" />
      <path
         id="path66"
         style="fill:none;stroke:#0000ff;stroke-opacity:1;stroke-width:0.09448819;stroke-miterlimit:4;stroke-dasharray:none"
         d="M -309.44885,1092.8811 A 0.661417,0.661417 0 0 0 -308.56779,1092" />
      <path
         id="path68"
         style="fill:none;stroke:#0000ff;stroke-opacity:1;stroke-width:0.09448819;stroke-miterlimit:4;stroke-dasharray:none"
         d="m -309.44885,1092.8811 v 41.2606" />
      <path
         id="path70"
         style="fill:none;stroke:#0000ff;stroke-opacity:1;stroke-width:0.09448819;stroke-miterlimit:4;stroke-dasharray:none"
         d="m -309.44885,1134.1417 h 62.64568" />
      <path
         id="path72"
         style="fill:none;stroke:#0000ff;stroke-opacity:1;stroke-width:0.09448819;stroke-miterlimit:4;stroke-dasharray:none"
         d="m -237.63782,1143.3071 a 9.165354,9.165354 0 0 0 -9.16535,-9.1654" />
      <path
         id="path74"
         style="fill:none;stroke:#0000ff;stroke-opacity:1;stroke-width:0.09448819;stroke-miterlimit:4;stroke-dasharray:none"
         d="m -237.63782,1143.3071 v 50.6553" />
      <path
         id="path76"
         style="fill:none;stroke:#0000ff;stroke-opacity:1;stroke-width:0.09448819;stroke-miterlimit:4;stroke-dasharray:none"
         d="m -241.13388,1197.4585 a 3.496063,3.496063 0 0 0 3.49606,-3.4961" />
      <path
         id="path78"
         style="fill:none;stroke:#0000ff;stroke-opacity:1;stroke-width:0.09448819;stroke-miterlimit:4;stroke-dasharray:none"
         d="M -241.13388,1197.4585 H -430.11026" />
      <path
         id="path80"
         style="fill:none;stroke:#0000ff;stroke-opacity:1;stroke-width:0.09448819;stroke-miterlimit:4;stroke-dasharray:none"
         d="m -433.60633,1193.9624 a 3.496063,3.496063 0 0 0 3.49607,3.4961" />
      <path
         id="path82"
         style="fill:none;stroke:#0000ff;stroke-opacity:1;stroke-width:0.09448819;stroke-miterlimit:4;stroke-dasharray:none"
         d="m -433.60633,1193.9624 v -50.6553" />
      <path
         id="path84"
         style="fill:none;stroke:#0000ff;stroke-opacity:1;stroke-width:0.09448819;stroke-miterlimit:4;stroke-dasharray:none"
         d="m -424.44097,1134.1417 a 9.165354,9.165354 0 0 0 -9.16536,9.1654" />
      <path
         id="path86"
         style="fill:none;stroke:#0000ff;stroke-opacity:1;stroke-width:0.09448819;stroke-miterlimit:4;stroke-dasharray:none"
         d="m -424.44097,1134.1417 h 55.08661" />
      <path
         id="path88"
         style="fill:none;stroke:#0000ff;stroke-opacity:1;stroke-width:0.09448819;stroke-miterlimit:4;stroke-dasharray:none"
         d="M -369.35436,1134.1417 V 1092" />
      <path
         id="path90"
         style="fill:none;stroke:#0000ff;stroke-opacity:1;stroke-width:0.09448819;stroke-miterlimit:4;stroke-dasharray:none"
         d="m -369.35436,1092 h -27.02362" />
      <path
         id="path92"
         style="fill:none;stroke:#0000ff;stroke-opacity:1;stroke-width:0.09448819;stroke-miterlimit:4;stroke-dasharray:none"
         d="m -396.37798,1092 v 17.2913" />
      <path
         id="path94"
         style="fill:none;stroke:#0000ff;stroke-opacity:1;stroke-width:0.09448819;stroke-miterlimit:4;stroke-dasharray:none"
         d="m -405.54333,1118.4567 a 9.165354,9.165354 0 0 0 9.16535,-9.1654" />
      <path
         id="path96"
         style="fill:none;stroke:#0000ff;stroke-opacity:1;stroke-width:0.09448819;stroke-miterlimit:4;stroke-dasharray:none"
         d="m -405.54333,1118.4567 h -19.18111" />
      <path
         id="path98"
         style="fill:none;stroke:#0000ff;stroke-opacity:1;stroke-width:0.09448819;stroke-miterlimit:4;stroke-dasharray:none"
         d="m -424.72444,1118.4567 c -12.37057,-0.269 -22.27041,1.4424 -21.73228,19.7323" />
      <path
         id="path100"
         style="fill:none;stroke:#0000ff;stroke-opacity:1;stroke-width:0.09448819;stroke-miterlimit:4;stroke-dasharray:none"
         d="m -446.45672,1138.189 v 18.063" />
      <path
         id="path102"
         style="fill:none;stroke:#0000ff;stroke-opacity:1;stroke-width:0.09448819;stroke-miterlimit:4;stroke-dasharray:none"
         d="m -446.45672,1156.252 h -45.35433" />
      <path
         id="path104"
         style="fill:none;stroke:#0000ff;stroke-opacity:1;stroke-width:0.09448819;stroke-miterlimit:4;stroke-dasharray:none"
         d="m -491.81105,1156.252 v 211.937" />
      <path
         id="path106"
         style="fill:none;stroke:#0000ff;stroke-opacity:1;stroke-width:0.09448819;stroke-miterlimit:4;stroke-dasharray:none"
         d="m -491.81105,1368.189 a 19.181102,19.181102 0 0 0 19.1811,19.1811" />
      <path
         id="path108"
         style="fill:none;stroke:#0000ff;stroke-opacity:1;stroke-width:0.09448819;stroke-miterlimit:4;stroke-dasharray:none"
         d="m -472.62995,1387.3701 h 945.2599" />
      <path
         id="path110"
         style="fill:none;stroke:#0000ff;stroke-opacity:1;stroke-width:0.09448819;stroke-miterlimit:4;stroke-dasharray:none"
         d="m 472.62995,1387.3701 a 19.181102,19.181102 0 0 0 19.1811,-19.1811" />
      <path
         id="path112"
         style="fill:none;stroke:#0000ff;stroke-opacity:1;stroke-width:0.09448819;stroke-miterlimit:4;stroke-dasharray:none"
         d="M 491.81105,1368.189 V 876.85039" />
      <path
         id="path114"
         style="fill:none;stroke:#0000ff;stroke-opacity:1;stroke-width:0.09448819;stroke-miterlimit:4;stroke-dasharray:none"
         d="m 491.81105,876.85039 a 19.181102,19.181102 0 0 0 -19.1811,-19.1811" />
      <path
         id="path116"
         style="fill:none;stroke:#0000ff;stroke-opacity:1;stroke-width:0.09448819;stroke-miterlimit:4;stroke-dasharray:none"
         d="m 472.62995,857.66929 h -945.2599" />
      <path
         id="path118"
         style="fill:none;stroke:#0000ff;stroke-opacity:1;stroke-width:0.09448819;stroke-miterlimit:4;stroke-dasharray:none"
         d="m -472.62995,857.66929 a 19.181102,19.181102 0 0 0 -19.1811,19.1811" />
      <path
         id="path120"
         style="fill:none;stroke:#0000ff;stroke-opacity:1;stroke-width:0.09448819;stroke-miterlimit:4;stroke-dasharray:none"
         d="M -491.81105,876.85039 V 1081.2283" />
      <path
         id="path122"
         style="fill:none;stroke:#0000ff;stroke-opacity:1;stroke-width:0.09448819;stroke-miterlimit:4;stroke-dasharray:none"
         d="m -491.81105,1081.2283 h 36.18897" />
      <path
         id="path124"
         style="fill:none;stroke:#0000ff;stroke-opacity:1;stroke-width:0.09448819;stroke-miterlimit:4;stroke-dasharray:none"
         d="m -455.62208,1081.2283 a 9.732283,9.732283 0 0 0 9.73229,-9.7322" />
      <path
         id="path126"
         style="fill:none;stroke:#0000ff;stroke-opacity:1;stroke-width:0.09448819;stroke-miterlimit:4;stroke-dasharray:none"
         d="m -445.88979,1071.4961 v -34.0158" />
      <path
         id="path128"
         style="fill:none;stroke:#0000ff;stroke-opacity:1;stroke-width:0.09448819;stroke-miterlimit:4;stroke-dasharray:none"
         d="m -436.72444,1028.315 a 9.165354,9.165354 0 0 0 -9.16535,9.1653" />
      <path
         id="path130"
         style="fill:none;stroke:#0000ff;stroke-opacity:1;stroke-width:0.09448819;stroke-miterlimit:4;stroke-dasharray:none"
         d="m -436.72444,1028.315 h 3.11811" />
      <path
         id="path132"
         style="fill:none;stroke:#0000ff;stroke-opacity:1;stroke-width:0.09448819;stroke-miterlimit:4;stroke-dasharray:none"
         d="M -433.60633,1028.315 V 992.12598" />
      <path
         id="path134"
         style="fill:none;stroke:#0000ff;stroke-opacity:1;stroke-width:0.09448819;stroke-miterlimit:4;stroke-dasharray:none"
         d="m -424.44097,982.96063 a 9.165354,9.165354 0 0 0 -9.16536,9.16535" />
      <path
         id="path136"
         style="fill:none;stroke:#0000ff;stroke-opacity:1;stroke-width:0.09448819;stroke-miterlimit:4;stroke-dasharray:none"
         d="m -424.44097,982.96063 h 850.3937" />
      <path
         id="path138"
         style="fill:none;stroke:#0000ff;stroke-opacity:1;stroke-width:0.09448819;stroke-miterlimit:4;stroke-dasharray:none"
         d="m 435.11808,992.12598 a 9.165354,9.165354 0 0 0 -9.16535,-9.16535" />
      <path
         id="path140"
         style="fill:none;stroke:#0000ff;stroke-opacity:1;stroke-width:0.09448819;stroke-miterlimit:4;stroke-dasharray:none"
         d="m 435.11808,992.12598 v 30.23622" />
      <path
         id="path142"
         style="fill:none;stroke:#0000ff;stroke-opacity:1;stroke-width:0.09448819;stroke-miterlimit:4;stroke-dasharray:none"
         d="m 425.95273,1031.5276 a 9.165354,9.165354 0 0 0 9.16535,-9.1654" />
      <path
         id="path144"
         style="fill:none;stroke:#0000ff;stroke-opacity:1;stroke-width:0.09448819;stroke-miterlimit:4;stroke-dasharray:none"
         d="M 425.95273,1031.5276 H -260.31499" />
      <path
         id="path146"
         style="fill:none;stroke:#0000ff;stroke-opacity:1;stroke-width:0.09448819;stroke-miterlimit:4;stroke-dasharray:none"
         d="m -260.31499,1031.5276 v 11.9055" />
      <path
         id="path148"
         style="fill:none;stroke:#0000ff;stroke-opacity:1;stroke-width:0.09448819;stroke-miterlimit:4;stroke-dasharray:none"
         d="m -260.31499,1043.4331 h 13.51182" />
      <path
         id="path150"
         style="fill:none;stroke:#0000ff;stroke-opacity:1;stroke-width:0.09448819;stroke-miterlimit:4;stroke-dasharray:none"
         d="m -237.63782,1052.5984 a 9.165354,9.165354 0 0 0 -9.16535,-9.1653" />
      <path
         id="path152"
         style="fill:none;stroke:#0000ff;stroke-opacity:1;stroke-width:0.09448819;stroke-miterlimit:4;stroke-dasharray:none"
         d="m -237.63782,1052.5984 v 30.2362" />
      <path
         id="path154"
         style="fill:none;stroke:#0000ff;stroke-opacity:1;stroke-width:0.09448819;stroke-miterlimit:4;stroke-dasharray:none"
         d="m -246.80317,1092 a 9.165354,9.165354 0 0 0 9.16535,-9.1654" />
      <path
         id="path156"
         style="fill:none;stroke:#0000ff;stroke-opacity:1;stroke-width:0.09448819;stroke-miterlimit:4;stroke-dasharray:none"
         d="m -246.80317,1092 h -61.76462" />
      <path
         id="path158"
         style="fill:none;stroke:#0000ff;stroke-opacity:1;stroke-width:0.09448819;stroke-miterlimit:4;stroke-dasharray:none"
         d="m -237.63782,1279.3701 v 41.5748" />
      <path
         id="path160"
         style="fill:none;stroke:#0000ff;stroke-opacity:1;stroke-width:0.09448819;stroke-miterlimit:4;stroke-dasharray:none"
         d="m -246.80317,1330.1102 a 9.165354,9.165354 0 0 0 9.16535,-9.1653" />
      <path
         id="path162"
         style="fill:none;stroke:#0000ff;stroke-opacity:1;stroke-width:0.09448819;stroke-miterlimit:4;stroke-dasharray:none"
         d="m -246.80317,1330.1102 h -177.6378" />
      <path
         id="path164"
         style="fill:none;stroke:#0000ff;stroke-opacity:1;stroke-width:0.09448819;stroke-miterlimit:4;stroke-dasharray:none"
         d="m -433.60633,1320.9449 a 9.165354,9.165354 0 0 0 9.16536,9.1653" />
      <path
         id="path166"
         style="fill:none;stroke:#0000ff;stroke-opacity:1;stroke-width:0.09448819;stroke-miterlimit:4;stroke-dasharray:none"
         d="m -433.60633,1320.9449 v -41.5748" />
      <path
         id="path168"
         style="fill:none;stroke:#0000ff;stroke-opacity:1;stroke-width:0.09448819;stroke-miterlimit:4;stroke-dasharray:none"
         d="m -424.44097,1270.2047 a 9.165354,9.165354 0 0 0 -9.16536,9.1654" />
      <path
         id="path170"
         style="fill:none;stroke:#0000ff;stroke-opacity:1;stroke-width:0.09448819;stroke-miterlimit:4;stroke-dasharray:none"
         d="m -424.44097,1270.2047 h 177.6378" />
      <path
         id="path172"
         style="fill:none;stroke:#0000ff;stroke-opacity:1;stroke-width:0.09448819;stroke-miterlimit:4;stroke-dasharray:none"
         d="m -237.63782,1279.3701 a 9.165354,9.165354 0 0 0 -9.16535,-9.1654" />
      <path
         id="path174"
         style="fill:none;stroke:#0000ff;stroke-opacity:1;stroke-width:0.09448819;stroke-miterlimit:4;stroke-dasharray:none"
         d="m 12.377933,961.88976 v -37.9011" />
      <path
         id="path176"
         style="fill:none;stroke:#0000ff;stroke-opacity:1;stroke-width:0.09448819;stroke-miterlimit:4;stroke-dasharray:none"
         d="m 21.543287,914.8233 a 9.165354,9.165354 0 0 0 -9.165354,9.16536" />
      <path
         id="path178"
         style="fill:none;stroke:#0000ff;stroke-opacity:1;stroke-width:0.09448819;stroke-miterlimit:4;stroke-dasharray:none"
         d="M 21.543287,914.8233 H 206.74014" />
      <path
         id="path180"
         style="fill:none;stroke:#0000ff;stroke-opacity:1;stroke-width:0.09448819;stroke-miterlimit:4;stroke-dasharray:none"
         d="m 215.90549,923.98866 a 9.165354,9.165354 0 0 0 -9.16535,-9.16536" />
      <path
         id="path182"
         style="fill:none;stroke:#0000ff;stroke-opacity:1;stroke-width:0.09448819;stroke-miterlimit:4;stroke-dasharray:none"
         d="m 215.90549,923.98866 v 37.9011" />
      <path
         id="path184"
         style="fill:none;stroke:#0000ff;stroke-opacity:1;stroke-width:0.09448819;stroke-miterlimit:4;stroke-dasharray:none"
         d="m 206.74014,971.05512 a 9.165354,9.165354 0 0 0 9.16535,-9.16536" />
      <path
         id="path186"
         style="fill:none;stroke:#0000ff;stroke-opacity:1;stroke-width:0.09448819;stroke-miterlimit:4;stroke-dasharray:none"
         d="M 206.74014,971.05512 H 21.543287" />
      <path
         id="path188"
         style="fill:none;stroke:#0000ff;stroke-opacity:1;stroke-width:0.09448819;stroke-miterlimit:4;stroke-dasharray:none"
         d="m 12.377933,961.88976 a 9.165354,9.165354 0 0 0 9.165354,9.16536" />
      <path
         id="path190"
         style="fill:none;stroke:#0000ff;stroke-opacity:1;stroke-width:0.09448819;stroke-miterlimit:4;stroke-dasharray:none"
         d="m -433.60633,1249.1339 v -30.2363" />
      <path
         id="path192"
         style="fill:none;stroke:#0000ff;stroke-opacity:1;stroke-width:0.09448819;stroke-miterlimit:4;stroke-dasharray:none"
         d="m -424.44097,1209.7323 a 9.165354,9.165354 0 0 0 -9.16536,9.1653" />
      <path
         id="path194"
         style="fill:none;stroke:#0000ff;stroke-opacity:1;stroke-width:0.09448819;stroke-miterlimit:4;stroke-dasharray:none"
         d="m -424.44097,1209.7323 h 850.3937" />
      <path
         id="path196"
         style="fill:none;stroke:#0000ff;stroke-opacity:1;stroke-width:0.09448819;stroke-miterlimit:4;stroke-dasharray:none"
         d="m 435.11808,1218.8976 a 9.165354,9.165354 0 0 0 -9.16535,-9.1653" />
      <path
         id="path198"
         style="fill:none;stroke:#0000ff;stroke-opacity:1;stroke-width:0.09448819;stroke-miterlimit:4;stroke-dasharray:none"
         d="m 435.11808,1218.8976 v 30.2363" />
      <path
         id="path200"
         style="fill:none;stroke:#0000ff;stroke-opacity:1;stroke-width:0.09448819;stroke-miterlimit:4;stroke-dasharray:none"
         d="m 425.95273,1258.2992 a 9.165354,9.165354 0 0 0 9.16535,-9.1653" />
      <path
         id="path202"
         style="fill:none;stroke:#0000ff;stroke-opacity:1;stroke-width:0.09448819;stroke-miterlimit:4;stroke-dasharray:none"
         d="m 425.95273,1258.2992 h -850.3937" />
      <path
         id="path204"
         style="fill:none;stroke:#0000ff;stroke-opacity:1;stroke-width:0.09448819;stroke-miterlimit:4;stroke-dasharray:none"
         d="m -433.60633,1249.1339 a 9.165354,9.165354 0 0 0 9.16536,9.1653" />
      <path
         id="path206"
         style="fill:none;stroke:#0000ff;stroke-opacity:1;stroke-width:0.09448819;stroke-miterlimit:4;stroke-dasharray:none"
         d="m 239.14959,1320.9449 v -41.5748" />
      <path
         id="path208"
         style="fill:none;stroke:#0000ff;stroke-opacity:1;stroke-width:0.09448819;stroke-miterlimit:4;stroke-dasharray:none"
         d="m 248.31494,1270.2047 a 9.165354,9.165354 0 0 0 -9.16535,9.1654" />
      <path
         id="path210"
         style="fill:none;stroke:#0000ff;stroke-opacity:1;stroke-width:0.09448819;stroke-miterlimit:4;stroke-dasharray:none"
         d="M 248.31494,1270.2047 H 425.95273" />
      <path
         id="path212"
         style="fill:none;stroke:#0000ff;stroke-opacity:1;stroke-width:0.09448819;stroke-miterlimit:4;stroke-dasharray:none"
         d="m 435.11808,1279.3701 a 9.165354,9.165354 0 0 0 -9.16535,-9.1654" />
      <path
         id="path214"
         style="fill:none;stroke:#0000ff;stroke-opacity:1;stroke-width:0.09448819;stroke-miterlimit:4;stroke-dasharray:none"
         d="m 435.11808,1279.3701 v 41.5748" />
      <path
         id="path216"
         style="fill:none;stroke:#0000ff;stroke-opacity:1;stroke-width:0.09448819;stroke-miterlimit:4;stroke-dasharray:none"
         d="m 425.95273,1330.1102 a 9.165354,9.165354 0 0 0 9.16535,-9.1653" />
      <path
         id="path218"
         style="fill:none;stroke:#0000ff;stroke-opacity:1;stroke-width:0.09448819;stroke-miterlimit:4;stroke-dasharray:none"
         d="M 425.95273,1330.1102 H 248.31494" />
      <path
         id="path220"
         style="fill:none;stroke:#0000ff;stroke-opacity:1;stroke-width:0.09448819;stroke-miterlimit:4;stroke-dasharray:none"
         d="m 239.14959,1320.9449 a 9.165354,9.165354 0 0 0 9.16535,9.1653" />
      <path
         id="path222"
         style="fill:none;stroke:#0000ff;stroke-opacity:1;stroke-width:0.09448819;stroke-miterlimit:4;stroke-dasharray:none"
         d="m 248.31494,1134.1417 a 9.165354,9.165354 0 0 0 -9.16535,9.1654" />
      <path
         id="path224"
         style="fill:none;stroke:#0000ff;stroke-opacity:1;stroke-width:0.09448819;stroke-miterlimit:4;stroke-dasharray:none"
         d="m 239.14959,1193.9624 v -50.6553" />
      <path
         id="path226"
         style="fill:none;stroke:#0000ff;stroke-opacity:1;stroke-width:0.09448819;stroke-miterlimit:4;stroke-dasharray:none"
         d="m 239.14959,1193.9624 a 3.496063,3.496063 0 0 0 3.49606,3.4961" />
      <path
         id="path228"
         style="fill:none;stroke:#0000ff;stroke-opacity:1;stroke-width:0.09448819;stroke-miterlimit:4;stroke-dasharray:none"
         d="M 431.62202,1197.4585 H 242.64565" />
      <path
         id="path230"
         style="fill:none;stroke:#0000ff;stroke-opacity:1;stroke-width:0.09448819;stroke-miterlimit:4;stroke-dasharray:none"
         d="m 431.62202,1197.4585 a 3.496063,3.496063 0 0 0 3.49606,-3.4961" />
      <path
         id="path232"
         style="fill:none;stroke:#0000ff;stroke-opacity:1;stroke-width:0.09448819;stroke-miterlimit:4;stroke-dasharray:none"
         d="m 435.11808,1143.3071 v 50.6553" />
      <path
         id="path234"
         style="fill:none;stroke:#0000ff;stroke-opacity:1;stroke-width:0.09448819;stroke-miterlimit:4;stroke-dasharray:none"
         d="m 435.11808,1143.3071 a 9.165354,9.165354 0 0 0 -9.16535,-9.1654" />
      <path
         id="path236"
         style="fill:none;stroke:#0000ff;stroke-opacity:1;stroke-width:0.09448819;stroke-miterlimit:4;stroke-dasharray:none"
         d="m 370.86613,1134.1417 h 55.0866" />
      <path
         id="path238"
         style="fill:none;stroke:#0000ff;stroke-opacity:1;stroke-width:0.09448819;stroke-miterlimit:4;stroke-dasharray:none"
         d="m 370.86613,1092 v 42.1417" />
      <path
         id="path240"
         style="fill:none;stroke:#0000ff;stroke-opacity:1;stroke-width:0.09448819;stroke-miterlimit:4;stroke-dasharray:none"
         d="m 425.95273,1092 h -55.0866" />
      <path
         id="path242"
         style="fill:none;stroke:#0000ff;stroke-opacity:1;stroke-width:0.09448819;stroke-miterlimit:4;stroke-dasharray:none"
         d="m 425.95273,1092 a 9.165354,9.165354 0 0 0 9.16535,-9.1654" />
      <path
         id="path244"
         style="fill:none;stroke:#0000ff;stroke-opacity:1;stroke-width:0.09448819;stroke-miterlimit:4;stroke-dasharray:none"
         d="m 435.11808,1052.5984 v 30.2362" />
      <path
         id="path246"
         style="fill:none;stroke:#0000ff;stroke-opacity:1;stroke-width:0.09448819;stroke-miterlimit:4;stroke-dasharray:none"
         d="m 435.11808,1052.5984 a 9.165354,9.165354 0 0 0 -9.16535,-9.1653" />
      <path
         id="path248"
         style="fill:none;stroke:#0000ff;stroke-opacity:1;stroke-width:0.09448819;stroke-miterlimit:4;stroke-dasharray:none"
         d="M 248.31494,1043.4331 H 425.95273" />
      <path
         id="path250"
         style="fill:none;stroke:#0000ff;stroke-opacity:1;stroke-width:0.09448819;stroke-miterlimit:4;stroke-dasharray:none"
         d="m 248.31494,1043.4331 a 9.165354,9.165354 0 0 0 -9.16535,9.1653" />
      <path
         id="path252"
         style="fill:none;stroke:#0000ff;stroke-opacity:1;stroke-width:0.09448819;stroke-miterlimit:4;stroke-dasharray:none"
         d="m 239.14959,1082.8346 v -30.2362" />
      <path
         id="path254"
         style="fill:none;stroke:#0000ff;stroke-opacity:1;stroke-width:0.09448819;stroke-miterlimit:4;stroke-dasharray:none"
         d="M 239.14959,1082.8346 A 9.165354,9.165354 0 0 0 248.31494,1092" />
      <path
         id="path256"
         style="fill:none;stroke:#0000ff;stroke-opacity:1;stroke-width:0.09448819;stroke-miterlimit:4;stroke-dasharray:none"
         d="M 310.96061,1092 H 248.31494" />
      <path
         id="path258"
         style="fill:none;stroke:#0000ff;stroke-opacity:1;stroke-width:0.09448819;stroke-miterlimit:4;stroke-dasharray:none"
         d="M 310.96061,1134.1417 V 1092" />
      <path
         id="path260"
         style="fill:none;stroke:#0000ff;stroke-opacity:1;stroke-width:0.09448819;stroke-miterlimit:4;stroke-dasharray:none"
         d="m 248.31494,1134.1417 h 62.64567" />
      <path
         id="path262"
         style="fill:none;stroke:#0000ff;stroke-opacity:1;stroke-width:0.09448819;stroke-miterlimit:4;stroke-dasharray:none"
         d="m 239.14959,961.88976 a 9.165354,9.165354 0 0 0 9.16535,9.16536" />
      <path
         id="path264"
         style="fill:none;stroke:#0000ff;stroke-opacity:1;stroke-width:0.09448819;stroke-miterlimit:4;stroke-dasharray:none"
         d="M 425.95273,971.05512 H 248.31494" />
      <path
         id="path266"
         style="fill:none;stroke:#0000ff;stroke-opacity:1;stroke-width:0.09448819;stroke-miterlimit:4;stroke-dasharray:none"
         d="m 425.95273,971.05512 a 9.165354,9.165354 0 0 0 9.16535,-9.16536" />
      <path
         id="path268"
         style="fill:none;stroke:#0000ff;stroke-opacity:1;stroke-width:0.09448819;stroke-miterlimit:4;stroke-dasharray:none"
         d="m 435.11808,923.98866 v 37.9011" />
      <path
         id="path270"
         style="fill:none;stroke:#0000ff;stroke-opacity:1;stroke-width:0.09448819;stroke-miterlimit:4;stroke-dasharray:none"
         d="m 435.11808,923.98866 a 9.165354,9.165354 0 0 0 -9.16535,-9.16536" />
      <path
         id="path272"
         style="fill:none;stroke:#0000ff;stroke-opacity:1;stroke-width:0.09448819;stroke-miterlimit:4;stroke-dasharray:none"
         d="M 248.31494,914.8233 H 425.95273" />
      <path
         id="path274"
         style="fill:none;stroke:#0000ff;stroke-opacity:1;stroke-width:0.09448819;stroke-miterlimit:4;stroke-dasharray:none"
         d="m 248.31494,914.8233 a 9.165354,9.165354 0 0 0 -9.16535,9.16536" />
      <path
         id="path276"
         style="fill:none;stroke:#0000ff;stroke-opacity:1;stroke-width:0.09448819;stroke-miterlimit:4;stroke-dasharray:none"
         d="m 239.14959,961.88976 v -37.9011" />
      <path
         id="path278"
         style="fill:none;stroke:#0000ff;stroke-opacity:1;stroke-width:0.09448819;stroke-miterlimit:4;stroke-dasharray:none"
         d="M 212.40943,1197.4585 H 15.873996" />
      <path
         id="path280"
         style="fill:none;stroke:#0000ff;stroke-opacity:1;stroke-width:0.09448819;stroke-miterlimit:4;stroke-dasharray:none"
         d="m 12.377933,1193.9624 a 3.496063,3.496063 0 0 0 3.496063,3.4961" />
      <path
         id="path282"
         style="fill:none;stroke:#0000ff;stroke-opacity:1;stroke-width:0.09448819;stroke-miterlimit:4;stroke-dasharray:none"
         d="m 12.377933,1193.9624 v -50.6553" />
      <path
         id="path284"
         style="fill:none;stroke:#0000ff;stroke-opacity:1;stroke-width:0.09448819;stroke-miterlimit:4;stroke-dasharray:none"
         d="m 21.543287,1134.1417 a 9.165354,9.165354 0 0 0 -9.165354,9.1654" />
      <path
         id="path286"
         style="fill:none;stroke:#0000ff;stroke-opacity:1;stroke-width:0.09448819;stroke-miterlimit:4;stroke-dasharray:none"
         d="m 21.543287,1134.1417 h 62.64567" />
      <path
         id="path288"
         style="fill:none;stroke:#0000ff;stroke-opacity:1;stroke-width:0.09448819;stroke-miterlimit:4;stroke-dasharray:none"
         d="M 84.188957,1134.1417 V 1092" />
      <path
         id="path290"
         style="fill:none;stroke:#0000ff;stroke-opacity:1;stroke-width:0.09448819;stroke-miterlimit:4;stroke-dasharray:none"
         d="M 84.188957,1092 H 21.543287" />
      <path
         id="path292"
         style="fill:none;stroke:#0000ff;stroke-opacity:1;stroke-width:0.09448819;stroke-miterlimit:4;stroke-dasharray:none"
         d="M 12.377933,1082.8346 A 9.165354,9.165354 0 0 0 21.543287,1092" />
      <path
         id="path294"
         style="fill:none;stroke:#0000ff;stroke-opacity:1;stroke-width:0.09448819;stroke-miterlimit:4;stroke-dasharray:none"
         d="m 12.377933,1082.8346 v -30.2362" />
      <path
         id="path296"
         style="fill:none;stroke:#0000ff;stroke-opacity:1;stroke-width:0.09448819;stroke-miterlimit:4;stroke-dasharray:none"
         d="m 21.543287,1043.4331 a 9.165354,9.165354 0 0 0 -9.165354,9.1653" />
      <path
         id="path298"
         style="fill:none;stroke:#0000ff;stroke-opacity:1;stroke-width:0.09448819;stroke-miterlimit:4;stroke-dasharray:none"
         d="M 21.543287,1043.4331 H 206.74014" />
      <path
         id="path300"
         style="fill:none;stroke:#0000ff;stroke-opacity:1;stroke-width:0.09448819;stroke-miterlimit:4;stroke-dasharray:none"
         d="m 215.90549,1052.5984 a 9.165354,9.165354 0 0 0 -9.16535,-9.1653" />
      <path
         id="path302"
         style="fill:none;stroke:#0000ff;stroke-opacity:1;stroke-width:0.09448819;stroke-miterlimit:4;stroke-dasharray:none"
         d="m 215.90549,1052.5984 v 30.2362" />
      <path
         id="path304"
         style="fill:none;stroke:#0000ff;stroke-opacity:1;stroke-width:0.09448819;stroke-miterlimit:4;stroke-dasharray:none"
         d="m 206.74014,1092 a 9.165354,9.165354 0 0 0 9.16535,-9.1654" />
      <path
         id="path306"
         style="fill:none;stroke:#0000ff;stroke-opacity:1;stroke-width:0.09448819;stroke-miterlimit:4;stroke-dasharray:none"
         d="M 206.74014,1092 H 144.09447" />
      <path
         id="path308"
         style="fill:none;stroke:#0000ff;stroke-opacity:1;stroke-width:0.09448819;stroke-miterlimit:4;stroke-dasharray:none"
         d="m 144.09447,1092 v 42.1417" />
      <path
         id="path310"
         style="fill:none;stroke:#0000ff;stroke-opacity:1;stroke-width:0.09448819;stroke-miterlimit:4;stroke-dasharray:none"
         d="m 144.09447,1134.1417 h 62.64567" />
      <path
         id="path312"
         style="fill:none;stroke:#0000ff;stroke-opacity:1;stroke-width:0.09448819;stroke-miterlimit:4;stroke-dasharray:none"
         d="m 215.90549,1143.3071 a 9.165354,9.165354 0 0 0 -9.16535,-9.1654" />
      <path
         id="path314"
         style="fill:none;stroke:#0000ff;stroke-opacity:1;stroke-width:0.09448819;stroke-miterlimit:4;stroke-dasharray:none"
         d="m 215.90549,1143.3071 v 50.6553" />
      <path
         id="path316"
         style="fill:none;stroke:#0000ff;stroke-opacity:1;stroke-width:0.09448819;stroke-miterlimit:4;stroke-dasharray:none"
         d="m 212.40943,1197.4585 a 3.496063,3.496063 0 0 0 3.49606,-3.4961" />
      <path
         id="path318"
         style="fill:none;stroke:#0000ff;stroke-opacity:1;stroke-width:0.09448819;stroke-miterlimit:4;stroke-dasharray:none"
         d="M 21.543287,1270.2047 H 206.74014" />
      <path
         id="path320"
         style="fill:none;stroke:#0000ff;stroke-opacity:1;stroke-width:0.09448819;stroke-miterlimit:4;stroke-dasharray:none"
         d="m 215.90549,1279.3701 a 9.165354,9.165354 0 0 0 -9.16535,-9.1654" />
      <path
         id="path322"
         style="fill:none;stroke:#0000ff;stroke-opacity:1;stroke-width:0.09448819;stroke-miterlimit:4;stroke-dasharray:none"
         d="m 215.90549,1279.3701 v 41.5748" />
      <path
         id="path324"
         style="fill:none;stroke:#0000ff;stroke-opacity:1;stroke-width:0.09448819;stroke-miterlimit:4;stroke-dasharray:none"
         d="m 206.74014,1330.1102 a 9.165354,9.165354 0 0 0 9.16535,-9.1653" />
      <path
         id="path326"
         style="fill:none;stroke:#0000ff;stroke-opacity:1;stroke-width:0.09448819;stroke-miterlimit:4;stroke-dasharray:none"
         d="M 206.74014,1330.1102 H 21.543287" />
      <path
         id="path328"
         style="fill:none;stroke:#0000ff;stroke-opacity:1;stroke-width:0.09448819;stroke-miterlimit:4;stroke-dasharray:none"
         d="m 12.377933,1320.9449 a 9.165354,9.165354 0 0 0 9.165354,9.1653" />
      <path
         id="path330"
         style="fill:none;stroke:#0000ff;stroke-opacity:1;stroke-width:0.09448819;stroke-miterlimit:4;stroke-dasharray:none"
         d="m 12.377933,1320.9449 v -41.5748" />
      <path
         id="path332"
         style="fill:none;stroke:#0000ff;stroke-opacity:1;stroke-width:0.09448819;stroke-miterlimit:4;stroke-dasharray:none"
         d="m 21.543287,1270.2047 a 9.165354,9.165354 0 0 0 -9.165354,9.1654" />
      <path
         id="path334"
         style="fill:none;stroke:#0000ff;stroke-opacity:1;stroke-width:0.09448819;stroke-miterlimit:4;stroke-dasharray:none"
         d="M -20.031517,1330.1102 H -205.22837" />
      <path
         id="path336"
         style="fill:none;stroke:#0000ff;stroke-opacity:1;stroke-width:0.09448819;stroke-miterlimit:4;stroke-dasharray:none"
         d="m -214.39372,1320.9449 a 9.165354,9.165354 0 0 0 9.16535,9.1653" />
      <path
         id="path338"
         style="fill:none;stroke:#0000ff;stroke-opacity:1;stroke-width:0.09448819;stroke-miterlimit:4;stroke-dasharray:none"
         d="m -214.39372,1320.9449 v -41.5748" />
      <path
         id="path340"
         style="fill:none;stroke:#0000ff;stroke-opacity:1;stroke-width:0.09448819;stroke-miterlimit:4;stroke-dasharray:none"
         d="m -205.22837,1270.2047 a 9.165354,9.165354 0 0 0 -9.16535,9.1654" />
      <path
         id="path342"
         style="fill:none;stroke:#0000ff;stroke-opacity:1;stroke-width:0.09448819;stroke-miterlimit:4;stroke-dasharray:none"
         d="M -205.22837,1270.2047 H -20.031517" />
      <path
         id="path344"
         style="fill:none;stroke:#0000ff;stroke-opacity:1;stroke-width:0.09448819;stroke-miterlimit:4;stroke-dasharray:none"
         d="m -10.866162,1279.3701 a 9.165354,9.165354 0 0 0 -9.165355,-9.1654" />
      <path
         id="path346"
         style="fill:none;stroke:#0000ff;stroke-opacity:1;stroke-width:0.09448819;stroke-miterlimit:4;stroke-dasharray:none"
         d="m -10.866162,1279.3701 v 41.5748" />
      <path
         id="path348"
         style="fill:none;stroke:#0000ff;stroke-opacity:1;stroke-width:0.09448819;stroke-miterlimit:4;stroke-dasharray:none"
         d="m -20.031517,1330.1102 a 9.165354,9.165354 0 0 0 9.165355,-9.1653" />
      <path
         id="path350"
         style="fill:none;stroke:#0000ff;stroke-opacity:1;stroke-width:0.09448819;stroke-miterlimit:4;stroke-dasharray:none"
         d="m -214.39372,961.88976 v -37.9011" />
      <path
         id="path352"
         style="fill:none;stroke:#0000ff;stroke-opacity:1;stroke-width:0.09448819;stroke-miterlimit:4;stroke-dasharray:none"
         d="m -205.22837,914.8233 a 9.165354,9.165354 0 0 0 -9.16535,9.16536" />
      <path
         id="path354"
         style="fill:none;stroke:#0000ff;stroke-opacity:1;stroke-width:0.09448819;stroke-miterlimit:4;stroke-dasharray:none"
         d="M -205.22837,914.8233 H -20.031517" />
      <path
         id="path356"
         style="fill:none;stroke:#0000ff;stroke-opacity:1;stroke-width:0.09448819;stroke-miterlimit:4;stroke-dasharray:none"
         d="m -10.866162,923.98866 a 9.165354,9.165354 0 0 0 -9.165355,-9.16536" />
      <path
         id="path358"
         style="fill:none;stroke:#0000ff;stroke-opacity:1;stroke-width:0.09448819;stroke-miterlimit:4;stroke-dasharray:none"
         d="m -10.866162,923.98866 v 37.9011" />
      <path
         id="path360"
         style="fill:none;stroke:#0000ff;stroke-opacity:1;stroke-width:0.09448819;stroke-miterlimit:4;stroke-dasharray:none"
         d="m -20.031517,971.05512 a 9.165354,9.165354 0 0 0 9.165355,-9.16536" />
      <path
         id="path362"
         style="fill:none;stroke:#0000ff;stroke-opacity:1;stroke-width:0.09448819;stroke-miterlimit:4;stroke-dasharray:none"
         d="M -20.031517,971.05512 H -205.22837" />
      <path
         id="path364"
         style="fill:none;stroke:#0000ff;stroke-opacity:1;stroke-width:0.09448819;stroke-miterlimit:4;stroke-dasharray:none"
         d="m -214.39372,961.88976 a 9.165354,9.165354 0 0 0 9.16535,9.16536" />
      <path
         id="path366"
         style="fill:none;stroke:#0000ff;stroke-opacity:1;stroke-width:0.09448819;stroke-miterlimit:4;stroke-dasharray:none"
         d="m -246.80317,971.05512 a 9.165354,9.165354 0 0 0 9.16535,-9.16536" />
      <path
         id="path368"
         style="fill:none;stroke:#0000ff;stroke-opacity:1;stroke-width:0.09448819;stroke-miterlimit:4;stroke-dasharray:none"
         d="M -246.80317,971.05512 H -384.41865" />
      <path
         id="path370"
         style="fill:none;stroke:#0000ff;stroke-opacity:1;stroke-width:0.09448819;stroke-miterlimit:4;stroke-dasharray:none"
         d="m -385.03274,971.05512 a 0.661417,0.661417 0 0 0 0.61409,0" />
      <path
         id="path372"
         style="fill:none;stroke:#0000ff;stroke-opacity:1;stroke-width:0.09448819;stroke-miterlimit:4;stroke-dasharray:none"
         d="m -385.03274,971.05512 h -39.40823" />
      <path
         id="path374"
         style="fill:none;stroke:#0000ff;stroke-opacity:1;stroke-width:0.09448819;stroke-miterlimit:4;stroke-dasharray:none"
         d="m -433.60633,961.88976 a 9.165354,9.165354 0 0 0 9.16536,9.16536" />
      <path
         id="path376"
         style="fill:none;stroke:#0000ff;stroke-opacity:1;stroke-width:0.09448819;stroke-miterlimit:4;stroke-dasharray:none"
         d="m -433.60633,961.88976 v -37.9011" />
      <path
         id="path378"
         style="fill:none;stroke:#0000ff;stroke-opacity:1;stroke-width:0.09448819;stroke-miterlimit:4;stroke-dasharray:none"
         d="m -424.44097,914.8233 a 9.165354,9.165354 0 0 0 -9.16536,9.16536" />
      <path
         id="path380"
         style="fill:none;stroke:#0000ff;stroke-opacity:1;stroke-width:0.09448819;stroke-miterlimit:4;stroke-dasharray:none"
         d="m -424.44097,914.8233 h 177.6378" />
      <path
         id="path382"
         style="fill:none;stroke:#0000ff;stroke-opacity:1;stroke-width:0.09448819;stroke-miterlimit:4;stroke-dasharray:none"
         d="m -237.63782,923.98866 a 9.165354,9.165354 0 0 0 -9.16535,-9.16536" />
      <path
         id="path384"
         style="fill:none;stroke:#0000ff;stroke-opacity:1;stroke-width:0.09448819;stroke-miterlimit:4;stroke-dasharray:none"
         d="m -237.63782,923.98866 v 37.9011" />
      <path
         id="path386"
         style="fill:none;stroke:#0000ff;stroke-opacity:1;stroke-width:0.09448819;stroke-miterlimit:4;stroke-dasharray:none"
         d="m -205.22837,1134.1417 h 62.64567" />
      <path
         id="path388"
         style="fill:none;stroke:#0000ff;stroke-opacity:1;stroke-width:0.09448819;stroke-miterlimit:4;stroke-dasharray:none"
         d="M -142.5827,1134.1417 V 1092" />
      <path
         id="path390"
         style="fill:none;stroke:#0000ff;stroke-opacity:1;stroke-width:0.09448819;stroke-miterlimit:4;stroke-dasharray:none"
         d="m -142.5827,1092 h -62.64567" />
      <path
         id="path392"
         style="fill:none;stroke:#0000ff;stroke-opacity:1;stroke-width:0.09448819;stroke-miterlimit:4;stroke-dasharray:none"
         d="m -214.39372,1082.8346 a 9.165354,9.165354 0 0 0 9.16535,9.1654" />
      <path
         id="path394"
         style="fill:none;stroke:#0000ff;stroke-opacity:1;stroke-width:0.09448819;stroke-miterlimit:4;stroke-dasharray:none"
         d="m -214.39372,1082.8346 v -30.2362" />
      <path
         id="path396"
         style="fill:none;stroke:#0000ff;stroke-opacity:1;stroke-width:0.09448819;stroke-miterlimit:4;stroke-dasharray:none"
         d="m -205.22837,1043.4331 a 9.165354,9.165354 0 0 0 -9.16535,9.1653" />
      <path
         id="path398"
         style="fill:none;stroke:#0000ff;stroke-opacity:1;stroke-width:0.09448819;stroke-miterlimit:4;stroke-dasharray:none"
         d="M -205.22837,1043.4331 H -20.031517" />
      <path
         id="path400"
         style="fill:none;stroke:#0000ff;stroke-opacity:1;stroke-width:0.09448819;stroke-miterlimit:4;stroke-dasharray:none"
         d="m -10.866162,1052.5984 a 9.165354,9.165354 0 0 0 -9.165355,-9.1653" />
      <path
         id="path402"
         style="fill:none;stroke:#0000ff;stroke-opacity:1;stroke-width:0.09448819;stroke-miterlimit:4;stroke-dasharray:none"
         d="m -10.866162,1052.5984 v 30.2362" />
      <path
         id="path404"
         style="fill:none;stroke:#0000ff;stroke-opacity:1;stroke-width:0.09448819;stroke-miterlimit:4;stroke-dasharray:none"
         d="m -20.031517,1092 a 9.165354,9.165354 0 0 0 9.165355,-9.1654" />
      <path
         id="path406"
         style="fill:none;stroke:#0000ff;stroke-opacity:1;stroke-width:0.09448819;stroke-miterlimit:4;stroke-dasharray:none"
         d="m -20.031517,1092 h -62.64567" />
      <path
         id="path408"
         style="fill:none;stroke:#0000ff;stroke-opacity:1;stroke-width:0.09448819;stroke-miterlimit:4;stroke-dasharray:none"
         d="m -82.677187,1092 v 42.1417" />
      <path
         id="path410"
         style="fill:none;stroke:#0000ff;stroke-opacity:1;stroke-width:0.09448819;stroke-miterlimit:4;stroke-dasharray:none"
         d="m -82.677187,1134.1417 h 62.64567" />
      <path
         id="path412"
         style="fill:none;stroke:#0000ff;stroke-opacity:1;stroke-width:0.09448819;stroke-miterlimit:4;stroke-dasharray:none"
         d="m -10.866162,1143.3071 a 9.165354,9.165354 0 0 0 -9.165355,-9.1654" />
      <path
         id="path414"
         style="fill:none;stroke:#0000ff;stroke-opacity:1;stroke-width:0.09448819;stroke-miterlimit:4;stroke-dasharray:none"
         d="m -10.866162,1143.3071 v 50.6553" />
      <path
         id="path416"
         style="fill:none;stroke:#0000ff;stroke-opacity:1;stroke-width:0.09448819;stroke-miterlimit:4;stroke-dasharray:none"
         d="m -14.362225,1197.4585 a 3.496063,3.496063 0 0 0 3.496063,-3.4961" />
      <path
         id="path418"
         style="fill:none;stroke:#0000ff;stroke-opacity:1;stroke-width:0.09448819;stroke-miterlimit:4;stroke-dasharray:none"
         d="M -14.362225,1197.4585 H -210.89766" />
      <path
         id="path420"
         style="fill:none;stroke:#0000ff;stroke-opacity:1;stroke-width:0.09448819;stroke-miterlimit:4;stroke-dasharray:none"
         d="m -214.39372,1193.9624 a 3.496063,3.496063 0 0 0 3.49606,3.4961" />
      <path
         id="path422"
         style="fill:none;stroke:#0000ff;stroke-opacity:1;stroke-width:0.09448819;stroke-miterlimit:4;stroke-dasharray:none"
         d="m -214.39372,1193.9624 v -50.6553" />
      <path
         id="path424"
         style="fill:none;stroke:#0000ff;stroke-opacity:1;stroke-width:0.09448819;stroke-miterlimit:4;stroke-dasharray:none"
         d="m -205.22837,1134.1417 a 9.165354,9.165354 0 0 0 -9.16535,9.1654" />
    </g>
  </g>
  <desc
     id="desc428">Adafruit NeoTrellis 4x4 v51 - Middle +2.dxf - scale = 1.000000, origin = (0.000000, 0.000000), method = manual</desc>
</svg>
