<?xml version="1.0" encoding="UTF-8" standalone="no"?>
<svg
   xmlns:dc="http://purl.org/dc/elements/1.1/"
   xmlns:cc="http://creativecommons.org/ns#"
   xmlns:rdf="http://www.w3.org/1999/02/22-rdf-syntax-ns#"
   xmlns:svg="http://www.w3.org/2000/svg"
   xmlns="http://www.w3.org/2000/svg"
   xmlns:sodipodi="http://sodipodi.sourceforge.net/DTD/sodipodi-0.dtd"
   xmlns:inkscape="http://www.inkscape.org/namespaces/inkscape"
   inkscape:version="1.0beta2 (2b71d25, 2019-12-03)"
   sodipodi:docname="NeoTrellisGrid_Enclosure_Base.svg"
   id="svg1114"
   version="1.1"
   height="1122.5196850393702"
   width="793.7007874015749"
   viewBox="0 0 793.7007874015749 1122.5196850393702">
  <metadata
     id="metadata1118">
    <rdf:RDF>
      <cc:Work
         rdf:about="">
        <dc:format>image/svg+xml</dc:format>
        <dc:type
           rdf:resource="http://purl.org/dc/dcmitype/StillImage" />
        <dc:title></dc:title>
      </cc:Work>
    </rdf:RDF>
  </metadata>
  <sodipodi:namedview
     inkscape:current-layer="g1715"
     inkscape:window-maximized="0"
     inkscape:window-y="23"
     inkscape:window-x="0"
     inkscape:cy="571.98454"
     inkscape:cx="-19.625838"
     inkscape:zoom="0.79118981"
     showgrid="false"
     id="namedview1116"
     inkscape:window-height="1158"
     inkscape:window-width="1456"
     inkscape:pageshadow="2"
     inkscape:pageopacity="0"
     guidetolerance="10"
     gridtolerance="10"
     objecttolerance="10"
     borderopacity="1"
     inkscape:document-rotation="0"
     bordercolor="#666666"
     pagecolor="#ffffff" />
  <defs
     id="defs1052">
    <marker
       style="overflow:visible"
       refY="0.0"
       refX="0.0"
       orient="auto"
       id="DistanceX">
      <path
         id="path1040"
         style="stroke:#000000; stroke-width:0.5"
         d="M 3,-3 L -3,3 M 0,-5 L  0,5" />
    </marker>
    <pattern
       y="0"
       x="0"
       height="8"
       width="8"
       patternUnits="userSpaceOnUse"
       id="Hatch">
      <path
         id="path1043"
         linecap="square"
         stroke-width="0.25"
         stroke="#000000"
         d="M8 4 l-4,4" />
      <path
         id="path1045"
         linecap="square"
         stroke-width="0.25"
         stroke="#000000"
         d="M6 2 l-4,4" />
      <path
         id="path1047"
         linecap="square"
         stroke-width="0.25"
         stroke="#000000"
         d="M4 0 l-4,4" />
    </pattern>
    <symbol
       id="*MODEL_SPACE" />
    <symbol
       id="*PAPER_SPACE" />
  </defs>
  <g
     id="g1110"
     inkscape:label="0"
     inkscape:groupmode="layer">
    <g
       style="stroke:#0000ff;stroke-opacity:1;stroke-width:0.09448819;stroke-miterlimit:4;stroke-dasharray:none"
       transform="rotate(90,454.01273,983.09847)"
       id="g1715">
      <path
         inkscape:connector-curvature="0"
         d="m -454.95961,1046.93 a 10.110236,10.110236 0 1 0 -20.22047,0 10.110236,10.110236 0 1 0 20.22047,0 z"
         style="fill:none;stroke:#0000ff;stroke-opacity:1;stroke-width:0.09448819;stroke-miterlimit:4;stroke-dasharray:none"
         id="path1054" />
      <path
         inkscape:connector-curvature="0"
         d="m -454.95961,1198.1111 a 10.110236,10.110236 0 1 0 -20.22047,0 10.110236,10.110236 0 1 0 20.22047,0 z"
         style="fill:none;stroke:#0000ff;stroke-opacity:1;stroke-width:0.09448819;stroke-miterlimit:4;stroke-dasharray:none"
         id="path1056" />
      <path
         inkscape:connector-curvature="0"
         d="m 475.18113,1046.93 a 10.110236,10.110236 0 1 0 -20.22047,0 10.110236,10.110236 0 1 0 20.22047,0 z"
         style="fill:none;stroke:#0000ff;stroke-opacity:1;stroke-width:0.09448819;stroke-miterlimit:4;stroke-dasharray:none"
         id="path1058" />
      <path
         inkscape:connector-curvature="0"
         d="m 475.18113,1198.1111 a 10.110236,10.110236 0 1 0 -20.22047,0 10.110236,10.110236 0 1 0 20.22047,0 z"
         style="fill:none;stroke:#0000ff;stroke-opacity:1;stroke-width:0.09448819;stroke-miterlimit:4;stroke-dasharray:none"
         id="path1060" />
      <path
         inkscape:connector-curvature="0"
         d="m 180.9465,884.40944 a 10.11024,10.11024 0 1 0 -20.22048,0 10.11024,10.11024 0 1 0 20.22048,0 z"
         style="fill:none;stroke:#0000ff;stroke-opacity:1;stroke-width:0.09448819;stroke-miterlimit:4;stroke-dasharray:none"
         id="path1062" />
      <path
         inkscape:connector-curvature="0"
         d="m -159.21092,884.40944 a 10.11024,10.11024 0 1 0 -20.22048,0 10.11024,10.11024 0 1 0 20.22048,0 z"
         style="fill:none;stroke:#0000ff;stroke-opacity:1;stroke-width:0.09448819;stroke-miterlimit:4;stroke-dasharray:none"
         id="path1064" />
      <path
         inkscape:connector-curvature="0"
         d="m 475.18113,884.40944 a 10.110236,10.110236 0 1 0 -20.22047,0 10.110236,10.110236 0 1 0 20.22047,0 z"
         style="fill:none;stroke:#0000ff;stroke-opacity:1;stroke-width:0.09448819;stroke-miterlimit:4;stroke-dasharray:none"
         id="path1066" />
      <path
         inkscape:connector-curvature="0"
         d="m -454.95961,884.40944 a 10.110236,10.110236 0 1 0 -20.22047,0 10.110236,10.110236 0 1 0 20.22047,0 z"
         style="fill:none;stroke:#0000ff;stroke-opacity:1;stroke-width:0.09448819;stroke-miterlimit:4;stroke-dasharray:none"
         id="path1068" />
      <path
         inkscape:connector-curvature="0"
         d="m -159.2115,1360.6299 a 10.11024,10.11024 0 1 0 -20.22048,0 10.11024,10.11024 0 1 0 20.22048,0 z"
         style="fill:none;stroke:#0000ff;stroke-opacity:1;stroke-width:0.09448819;stroke-miterlimit:4;stroke-dasharray:none"
         id="path1070" />
      <path
         inkscape:connector-curvature="0"
         d="m 180.94663,1360.6299 a 10.110237,10.110237 0 1 0 -20.22047,0 10.110236,10.110236 0 1 0 20.22047,0 z"
         style="fill:none;stroke:#0000ff;stroke-opacity:1;stroke-width:0.09448819;stroke-miterlimit:4;stroke-dasharray:none"
         id="path1072" />
      <path
         inkscape:connector-curvature="0"
         d="m 475.18113,1360.6299 a 10.110236,10.110236 0 1 0 -20.22047,0 10.110236,10.110236 0 1 0 20.22047,0 z"
         style="fill:none;stroke:#0000ff;stroke-opacity:1;stroke-width:0.09448819;stroke-miterlimit:4;stroke-dasharray:none"
         id="path1074" />
      <path
         inkscape:connector-curvature="0"
         d="m -454.96066,1360.6299 a 10.110236,10.110236 0 1 0 -20.22047,0 10.110236,10.110236 0 1 0 20.22047,0 z"
         style="fill:none;stroke:#0000ff;stroke-opacity:1;stroke-width:0.09448819;stroke-miterlimit:4;stroke-dasharray:none"
         id="path1076" />
      <path
         inkscape:connector-curvature="0"
         d="m -491.81105,1368.189 a 19.181102,19.181102 0 0 0 19.1811,19.1811"
         style="fill:none;stroke:#0000ff;stroke-opacity:1;stroke-width:0.09448819;stroke-miterlimit:4;stroke-dasharray:none"
         id="path1078" />
      <path
         inkscape:connector-curvature="0"
         d="m -472.62995,1387.3701 h 945.2599"
         style="fill:none;stroke:#0000ff;stroke-opacity:1;stroke-width:0.09448819;stroke-miterlimit:4;stroke-dasharray:none"
         id="path1080" />
      <path
         inkscape:connector-curvature="0"
         d="m 472.62995,1387.3701 a 19.181102,19.181102 0 0 0 19.1811,-19.1811"
         style="fill:none;stroke:#0000ff;stroke-opacity:1;stroke-width:0.09448819;stroke-miterlimit:4;stroke-dasharray:none"
         id="path1082" />
      <path
         inkscape:connector-curvature="0"
         d="M 491.81105,1368.189 V 876.85039"
         style="fill:none;stroke:#0000ff;stroke-opacity:1;stroke-width:0.09448819;stroke-miterlimit:4;stroke-dasharray:none"
         id="path1084" />
      <path
         inkscape:connector-curvature="0"
         d="m 491.81105,876.85039 a 19.181102,19.181102 0 0 0 -19.1811,-19.1811"
         style="fill:none;stroke:#0000ff;stroke-opacity:1;stroke-width:0.09448819;stroke-miterlimit:4;stroke-dasharray:none"
         id="path1086" />
      <path
         inkscape:connector-curvature="0"
         d="m 472.62995,857.66929 h -945.2599"
         style="fill:none;stroke:#0000ff;stroke-opacity:1;stroke-width:0.09448819;stroke-miterlimit:4;stroke-dasharray:none"
         id="path1088" />
      <path
         inkscape:connector-curvature="0"
         d="m -472.62995,857.66929 a 19.181102,19.181102 0 0 0 -19.1811,19.1811"
         style="fill:none;stroke:#0000ff;stroke-opacity:1;stroke-width:0.09448819;stroke-miterlimit:4;stroke-dasharray:none"
         id="path1090" />
      <path
         inkscape:connector-curvature="0"
         d="M -491.81105,876.85039 V 1368.189"
         style="fill:none;stroke:#0000ff;stroke-opacity:1;stroke-width:0.09448819;stroke-miterlimit:4;stroke-dasharray:none"
         id="path1092" />
      <path
         inkscape:connector-curvature="0"
         d="m -424.44097,914.92913 a 9.165354,9.165354 0 0 0 -9.16536,9.16535"
         style="fill:none;stroke:#0000ff;stroke-opacity:1;stroke-width:0.09448819;stroke-miterlimit:4;stroke-dasharray:none"
         id="path1094" />
      <path
         inkscape:connector-curvature="0"
         d="M -433.60633,1320.9449 V 924.09448"
         style="fill:none;stroke:#0000ff;stroke-opacity:1;stroke-width:0.09448819;stroke-miterlimit:4;stroke-dasharray:none"
         id="path1096" />
      <path
         inkscape:connector-curvature="0"
         d="m -433.60633,1320.9449 a 9.165354,9.165354 0 0 0 9.16536,9.1653"
         style="fill:none;stroke:#0000ff;stroke-opacity:1;stroke-width:0.09448819;stroke-miterlimit:4;stroke-dasharray:none"
         id="path1098" />
      <path
         inkscape:connector-curvature="0"
         d="m 425.95273,1330.1102 h -850.3937"
         style="fill:none;stroke:#0000ff;stroke-opacity:1;stroke-width:0.09448819;stroke-miterlimit:4;stroke-dasharray:none"
         id="path1100" />
      <path
         inkscape:connector-curvature="0"
         d="m 425.95273,1330.1102 a 9.165354,9.165354 0 0 0 9.16535,-9.1653"
         style="fill:none;stroke:#0000ff;stroke-opacity:1;stroke-width:0.09448819;stroke-miterlimit:4;stroke-dasharray:none"
         id="path1102" />
      <path
         inkscape:connector-curvature="0"
         d="M 435.11808,924.09448 V 1320.9449"
         style="fill:none;stroke:#0000ff;stroke-opacity:1;stroke-width:0.09448819;stroke-miterlimit:4;stroke-dasharray:none"
         id="path1104" />
      <path
         inkscape:connector-curvature="0"
         d="m 435.11808,924.09448 a 9.165354,9.165354 0 0 0 -9.16535,-9.16535"
         style="fill:none;stroke:#0000ff;stroke-opacity:1;stroke-width:0.09448819;stroke-miterlimit:4;stroke-dasharray:none"
         id="path1106" />
      <path
         inkscape:connector-curvature="0"
         d="m -424.44097,914.92913 h 850.3937"
         style="fill:none;stroke:#0000ff;stroke-opacity:1;stroke-width:0.09448819;stroke-miterlimit:4;stroke-dasharray:none"
         id="path1108" />
    </g>
  </g>
  <desc
     id="desc1112">Adafruit NeoTrellis 4x4 v51 - Base.dxf - scale = 1.000000, origin = (0.000000, 0.000000), method = manual</desc>
</svg>
