<?xml version="1.0" encoding="UTF-8" standalone="no"?>
<svg
   xmlns:dc="http://purl.org/dc/elements/1.1/"
   xmlns:cc="http://creativecommons.org/ns#"
   xmlns:rdf="http://www.w3.org/1999/02/22-rdf-syntax-ns#"
   xmlns:svg="http://www.w3.org/2000/svg"
   xmlns="http://www.w3.org/2000/svg"
   xmlns:sodipodi="http://sodipodi.sourceforge.net/DTD/sodipodi-0.dtd"
   xmlns:inkscape="http://www.inkscape.org/namespaces/inkscape"
   inkscape:version="1.0beta2 (2b71d25, 2019-12-03)"
   sodipodi:docname="NeoTrellisGrid_Enclosure_Base+3.svg"
   id="svg5775"
   version="1.1"
   height="1122.5196850393702"
   width="793.7007874015749"
   viewBox="0 0 793.7007874015749 1122.5196850393702">
  <sodipodi:namedview
     inkscape:current-layer="g5771"
     inkscape:window-maximized="0"
     inkscape:window-y="23"
     inkscape:window-x="0"
     inkscape:cy="559.99591"
     inkscape:cx="295.84584"
     inkscape:zoom="0.79118981"
     showgrid="false"
     id="namedview1862"
     inkscape:window-height="1233"
     inkscape:window-width="1287"
     inkscape:pageshadow="2"
     inkscape:pageopacity="0"
     guidetolerance="10"
     gridtolerance="10"
     objecttolerance="10"
     borderopacity="1"
     inkscape:document-rotation="0"
     bordercolor="#666666"
     pagecolor="#ffffff" />
  <metadata
     id="metadata5779">
    <rdf:RDF>
      <cc:Work
         rdf:about="">
        <dc:format>image/svg+xml</dc:format>
        <dc:type
           rdf:resource="http://purl.org/dc/dcmitype/StillImage" />
        <dc:title />
      </cc:Work>
    </rdf:RDF>
  </metadata>
  <defs
     id="defs5399">
    <marker
       style="overflow:visible"
       refY="0.0"
       refX="0.0"
       orient="auto"
       id="DistanceX">
      <path
         id="path5387"
         style="stroke:#000000; stroke-width:0.5"
         d="M 3,-3 L -3,3 M 0,-5 L  0,5" />
    </marker>
    <pattern
       y="0"
       x="0"
       height="8"
       width="8"
       patternUnits="userSpaceOnUse"
       id="Hatch">
      <path
         id="path5390"
         linecap="square"
         stroke-width="0.25"
         stroke="#000000"
         d="M8 4 l-4,4" />
      <path
         id="path5392"
         linecap="square"
         stroke-width="0.25"
         stroke="#000000"
         d="M6 2 l-4,4" />
      <path
         id="path5394"
         linecap="square"
         stroke-width="0.25"
         stroke="#000000"
         d="M4 0 l-4,4" />
    </pattern>
    <symbol
       id="*MODEL_SPACE" />
    <symbol
       id="*PAPER_SPACE" />
  </defs>
  <g
     id="g5771">
    <g
       style="stroke:#0000fd;stroke-opacity:1;stroke-width:0.09448819;stroke-miterlimit:4;stroke-dasharray:none"
       transform="rotate(90,474.59471,1052.3622)"
       id="g6533">
      <path
         d="m 472.34649,1360.6299 a 7.275595,7.275595 0 1 0 -14.55119,0 7.275595,7.275595 0 1 0 14.55119,0 z"
         style="fill:none;stroke:#0000fe;stroke-opacity:1;stroke-width:0.09448819;stroke-miterlimit:4;stroke-dasharray:none"
         id="path5401" />
      <path
         d="m 178.11199,1360.6299 a 7.275595,7.275595 0 1 0 -14.55119,0 7.275595,7.275595 0 1 0 14.55119,0 z"
         style="fill:none;stroke:#0000fe;stroke-opacity:1;stroke-width:0.09448819;stroke-miterlimit:4;stroke-dasharray:none"
         id="path5403" />
      <path
         d="m -162.04615,1360.6299 a 7.275591,7.275591 0 1 0 -14.55118,0 7.275591,7.275591 0 1 0 14.55118,0 z"
         style="fill:none;stroke:#0000fe;stroke-opacity:1;stroke-width:0.09448819;stroke-miterlimit:4;stroke-dasharray:none"
         id="path5405" />
      <path
         d="m -457.7953,1360.6299 a 7.275595,7.275595 0 1 0 -14.55119,0 7.275595,7.275595 0 1 0 14.55119,0 z"
         style="fill:none;stroke:#0000fe;stroke-opacity:1;stroke-width:0.09448819;stroke-miterlimit:4;stroke-dasharray:none"
         id="path5407" />
      <path
         d="m 472.34649,884.40944 a 7.275595,7.275595 0 1 0 -14.55119,0 7.275595,7.275595 0 1 0 14.55119,0 z"
         style="fill:none;stroke:#0000fe;stroke-opacity:1;stroke-width:0.09448819;stroke-miterlimit:4;stroke-dasharray:none"
         id="path5409" />
      <path
         d="m -457.79425,884.40944 a 7.275591,7.275591 0 1 0 -14.55118,0 7.275591,7.275591 0 1 0 14.55118,0 z"
         style="fill:none;stroke:#0000fe;stroke-opacity:1;stroke-width:0.09448819;stroke-miterlimit:4;stroke-dasharray:none"
         id="path5411" />
      <path
         d="m 178.11185,884.40944 a 7.275591,7.275591 0 1 0 -14.55118,0 7.275591,7.275591 0 1 0 14.55118,0 z"
         style="fill:none;stroke:#0000fe;stroke-opacity:1;stroke-width:0.09448819;stroke-miterlimit:4;stroke-dasharray:none"
         id="path5413" />
      <path
         d="m -162.04557,884.40944 a 7.275591,7.275591 0 1 0 -14.55118,0 7.275591,7.275591 0 1 0 14.55118,0 z"
         style="fill:none;stroke:#0000fe;stroke-opacity:1;stroke-width:0.09448819;stroke-miterlimit:4;stroke-dasharray:none"
         id="path5415" />
      <path
         d="m 472.34649,1046.93 a 7.275595,7.275595 0 1 0 -14.55119,0 7.275595,7.275595 0 1 0 14.55119,0 z"
         style="fill:none;stroke:#0000ff;stroke-opacity:1;stroke-width:0.09448819;stroke-miterlimit:4;stroke-dasharray:none"
         id="path5417" />
      <path
         d="m 472.34649,1198.1111 a 7.275595,7.275595 0 1 0 -14.55119,0 7.275595,7.275595 0 1 0 14.55119,0 z"
         style="fill:none;stroke:#0000ff;stroke-opacity:1;stroke-width:0.09448819;stroke-miterlimit:4;stroke-dasharray:none"
         id="path5419" />
      <path
         d="m -457.79425,1046.93 a 7.275591,7.275591 0 1 0 -14.55118,0 7.275591,7.275591 0 1 0 14.55118,0 z"
         style="fill:none;stroke:#0000ff;stroke-opacity:1;stroke-width:0.09448819;stroke-miterlimit:4;stroke-dasharray:none"
         id="path5421" />
      <path
         d="m -457.79425,1198.1111 a 7.275591,7.275591 0 1 0 -14.55118,0 7.275591,7.275591 0 1 0 14.55118,0 z"
         style="fill:none;stroke:#0000ff;stroke-opacity:1;stroke-width:0.09448819;stroke-miterlimit:4;stroke-dasharray:none"
         id="path5423" />
      <path
         d="m -491.81105,1368.189 a 19.181102,19.181102 0 0 0 19.1811,19.1811"
         style="fill:none;stroke:#0000ff;stroke-opacity:1;stroke-width:0.09448819;stroke-miterlimit:4;stroke-dasharray:none"
         id="path5425" />
      <path
         d="m -472.62995,1387.3701 h 945.2599"
         style="fill:none;stroke:#0000ff;stroke-opacity:1;stroke-width:0.09448819;stroke-miterlimit:4;stroke-dasharray:none"
         id="path5427" />
      <path
         d="m 472.62995,1387.3701 a 19.181102,19.181102 0 0 0 19.1811,-19.1811"
         style="fill:none;stroke:#0000fe;stroke-opacity:1;stroke-width:0.09448819;stroke-miterlimit:4;stroke-dasharray:none"
         id="path5429" />
      <path
         d="M 491.81105,1368.189 V 876.85039"
         style="fill:none;stroke:#0000fe;stroke-opacity:1;stroke-width:0.09448819;stroke-miterlimit:4;stroke-dasharray:none"
         id="path5431" />
      <path
         d="m 491.81105,876.85039 a 19.181102,19.181102 0 0 0 -19.1811,-19.1811"
         style="fill:none;stroke:#0000fe;stroke-opacity:1;stroke-width:0.09448819;stroke-miterlimit:4;stroke-dasharray:none"
         id="path5433" />
      <path
         d="m 472.62995,857.66929 h -945.2599"
         style="fill:none;stroke:#0000ff;stroke-opacity:1;stroke-width:0.09448819;stroke-miterlimit:4;stroke-dasharray:none"
         id="path5435" />
      <path
         d="m -472.62995,857.66929 a 19.181102,19.181102 0 0 0 -19.1811,19.1811"
         style="fill:none;stroke:#0000ff;stroke-opacity:1;stroke-width:0.09448819;stroke-miterlimit:4;stroke-dasharray:none"
         id="path5437" />
      <path
         d="M -491.81105,876.85039 V 1092.5669"
         style="fill:none;stroke:#0000ff;stroke-opacity:1;stroke-width:0.09448819;stroke-miterlimit:4;stroke-dasharray:none"
         id="path5439" />
      <path
         d="m -491.81105,1092.5669 h 45.35433"
         style="fill:none;stroke:#0000fd;stroke-opacity:1;stroke-width:0.09448819;stroke-miterlimit:4;stroke-dasharray:none"
         id="path5441" />
      <path
         d="m -446.45672,1092.5669 v 52.3465"
         style="fill:none;stroke:#0000fd;stroke-opacity:1;stroke-width:0.09448819;stroke-miterlimit:4;stroke-dasharray:none"
         id="path5443" />
      <path
         d="m -446.45672,1144.9134 h -45.35433"
         style="fill:none;stroke:#0000fd;stroke-opacity:1;stroke-width:0.09448819;stroke-miterlimit:4;stroke-dasharray:none"
         id="path5445" />
      <path
         d="M -491.81105,1144.9134 V 1368.189"
         style="fill:none;stroke:#0000ff;stroke-opacity:1;stroke-width:0.09448819;stroke-miterlimit:4;stroke-dasharray:none"
         id="path5447" />
      <path
         d="m -237.63782,1143.3071 v 50.6553"
         style="fill:none;stroke:#0000ff;stroke-opacity:1;stroke-width:0.09448819;stroke-miterlimit:4;stroke-dasharray:none"
         id="path5449" />
      <path
         d="m -237.63782,1143.3071 a 9.165354,9.165354 0 0 0 -9.16535,-9.1654"
         style="fill:none;stroke:#0000ff;stroke-opacity:1;stroke-width:0.09448819;stroke-miterlimit:4;stroke-dasharray:none"
         id="path5451" />
      <path
         d="m -309.44885,1134.1417 h 62.64568"
         style="fill:none;stroke:#0000ff;stroke-opacity:1;stroke-width:0.09448819;stroke-miterlimit:4;stroke-dasharray:none"
         id="path5453" />
      <path
         d="m -309.44885,1092.8811 v 41.2606"
         style="fill:none;stroke:#0000ff;stroke-opacity:1;stroke-width:0.09448819;stroke-miterlimit:4;stroke-dasharray:none"
         id="path5455" />
      <path
         d="M -309.44885,1092.8811 A 0.661417,0.661417 0 0 0 -308.56779,1092"
         style="fill:none;stroke:#0000ff;stroke-opacity:1;stroke-width:0.09448819;stroke-miterlimit:4;stroke-dasharray:none"
         id="path5457" />
      <path
         d="m -246.80317,1092 h -61.76462"
         style="fill:none;stroke:#0000ff;stroke-opacity:1;stroke-width:0.09448819;stroke-miterlimit:4;stroke-dasharray:none"
         id="path5459" />
      <path
         d="m -246.80317,1092 a 9.165354,9.165354 0 0 0 9.16535,-9.1654"
         style="fill:none;stroke:#0000ff;stroke-opacity:1;stroke-width:0.09448819;stroke-miterlimit:4;stroke-dasharray:none"
         id="path5461" />
      <path
         d="m -237.63782,1052.5984 v 30.2362"
         style="fill:none;stroke:#0000ff;stroke-opacity:1;stroke-width:0.09448819;stroke-miterlimit:4;stroke-dasharray:none"
         id="path5463" />
      <path
         d="m -237.63782,1052.5984 a 9.165354,9.165354 0 0 0 -9.16535,-9.1653"
         style="fill:none;stroke:#0000ff;stroke-opacity:1;stroke-width:0.09448819;stroke-miterlimit:4;stroke-dasharray:none"
         id="path5465" />
      <path
         d="m -260.31499,1043.4331 h 13.51182"
         style="fill:none;stroke:#0000ff;stroke-opacity:1;stroke-width:0.09448819;stroke-miterlimit:4;stroke-dasharray:none"
         id="path5467" />
      <path
         d="m -260.31499,1031.5276 v 11.9055"
         style="fill:none;stroke:#0000ff;stroke-opacity:1;stroke-width:0.09448819;stroke-miterlimit:4;stroke-dasharray:none"
         id="path5469" />
      <path
         d="M 425.95273,1031.5276 H -260.31499"
         style="fill:none;stroke:#0000ff;stroke-opacity:1;stroke-width:0.09448819;stroke-miterlimit:4;stroke-dasharray:none"
         id="path5471" />
      <path
         d="m 425.95273,1031.5276 a 9.165354,9.165354 0 0 0 9.16535,-9.1654"
         style="fill:none;stroke:#0000ff;stroke-opacity:1;stroke-width:0.09448819;stroke-miterlimit:4;stroke-dasharray:none"
         id="path5473" />
      <path
         d="m 435.11808,992.12598 v 30.23622"
         style="fill:none;stroke:#0000ff;stroke-opacity:1;stroke-width:0.09448819;stroke-miterlimit:4;stroke-dasharray:none"
         id="path5475" />
      <path
         d="m 435.11808,992.12598 a 9.165354,9.165354 0 0 0 -9.16535,-9.16535"
         style="fill:none;stroke:#0000ff;stroke-opacity:1;stroke-width:0.09448819;stroke-miterlimit:4;stroke-dasharray:none"
         id="path5477" />
      <path
         d="m -424.44097,982.96063 h 850.3937"
         style="fill:none;stroke:#0000ff;stroke-opacity:1;stroke-width:0.09448819;stroke-miterlimit:4;stroke-dasharray:none"
         id="path5479" />
      <path
         d="m -424.44097,982.96063 a 9.165354,9.165354 0 0 0 -9.16536,9.16535"
         style="fill:none;stroke:#0000ff;stroke-opacity:1;stroke-width:0.09448819;stroke-miterlimit:4;stroke-dasharray:none"
         id="path5481" />
      <path
         d="M -433.60633,1082.8346 V 992.12598"
         style="fill:none;stroke:#0000ff;stroke-opacity:1;stroke-width:0.09448819;stroke-miterlimit:4;stroke-dasharray:none"
         id="path5483" />
      <path
         d="m -433.60633,1082.8346 a 9.165354,9.165354 0 0 0 9.16536,9.1654"
         style="fill:none;stroke:#0000ff;stroke-opacity:1;stroke-width:0.09448819;stroke-miterlimit:4;stroke-dasharray:none"
         id="path5485" />
      <path
         d="m -369.35436,1092 h -55.08661"
         style="fill:none;stroke:#0000ff;stroke-opacity:1;stroke-width:0.09448819;stroke-miterlimit:4;stroke-dasharray:none"
         id="path5487" />
      <path
         d="M -369.35436,1134.1417 V 1092"
         style="fill:none;stroke:#0000ff;stroke-opacity:1;stroke-width:0.09448819;stroke-miterlimit:4;stroke-dasharray:none"
         id="path5489" />
      <path
         d="m -424.44097,1134.1417 h 55.08661"
         style="fill:none;stroke:#0000ff;stroke-opacity:1;stroke-width:0.09448819;stroke-miterlimit:4;stroke-dasharray:none"
         id="path5491" />
      <path
         d="m -424.44097,1134.1417 a 9.165354,9.165354 0 0 0 -9.16536,9.1654"
         style="fill:none;stroke:#0000ff;stroke-opacity:1;stroke-width:0.09448819;stroke-miterlimit:4;stroke-dasharray:none"
         id="path5493" />
      <path
         d="m -433.60633,1193.9624 v -50.6553"
         style="fill:none;stroke:#0000ff;stroke-opacity:1;stroke-width:0.09448819;stroke-miterlimit:4;stroke-dasharray:none"
         id="path5495" />
      <path
         d="m -433.60633,1193.9624 a 3.496063,3.496063 0 0 0 3.49607,3.4961"
         style="fill:none;stroke:#0000ff;stroke-opacity:1;stroke-width:0.09448819;stroke-miterlimit:4;stroke-dasharray:none"
         id="path5497" />
      <path
         d="M -241.13388,1197.4585 H -430.11026"
         style="fill:none;stroke:#0000ff;stroke-opacity:1;stroke-width:0.09448819;stroke-miterlimit:4;stroke-dasharray:none"
         id="path5499" />
      <path
         d="m -241.13388,1197.4585 a 3.496063,3.496063 0 0 0 3.49606,-3.4961"
         style="fill:none;stroke:#0000ff;stroke-opacity:1;stroke-width:0.09448819;stroke-miterlimit:4;stroke-dasharray:none"
         id="path5501" />
      <path
         d="m -246.80317,1330.1102 h -177.6378"
         style="fill:none;stroke:#0000ff;stroke-opacity:1;stroke-width:0.09448819;stroke-miterlimit:4;stroke-dasharray:none"
         id="path5503" />
      <path
         d="m -433.60633,1320.9449 a 9.165354,9.165354 0 0 0 9.16536,9.1653"
         style="fill:none;stroke:#0000ff;stroke-opacity:1;stroke-width:0.09448819;stroke-miterlimit:4;stroke-dasharray:none"
         id="path5505" />
      <path
         d="m -433.60633,1320.9449 v -41.5748"
         style="fill:none;stroke:#0000ff;stroke-opacity:1;stroke-width:0.09448819;stroke-miterlimit:4;stroke-dasharray:none"
         id="path5507" />
      <path
         d="m -424.44097,1270.2047 a 9.165354,9.165354 0 0 0 -9.16536,9.1654"
         style="fill:none;stroke:#0000ff;stroke-opacity:1;stroke-width:0.09448819;stroke-miterlimit:4;stroke-dasharray:none"
         id="path5509" />
      <path
         d="m -424.44097,1270.2047 h 177.6378"
         style="fill:none;stroke:#0000ff;stroke-opacity:1;stroke-width:0.09448819;stroke-miterlimit:4;stroke-dasharray:none"
         id="path5511" />
      <path
         d="m -237.63782,1279.3701 a 9.165354,9.165354 0 0 0 -9.16535,-9.1654"
         style="fill:none;stroke:#0000ff;stroke-opacity:1;stroke-width:0.09448819;stroke-miterlimit:4;stroke-dasharray:none"
         id="path5513" />
      <path
         d="m -237.63782,1279.3701 v 41.5748"
         style="fill:none;stroke:#0000ff;stroke-opacity:1;stroke-width:0.09448819;stroke-miterlimit:4;stroke-dasharray:none"
         id="path5515" />
      <path
         d="m -246.80317,1330.1102 a 9.165354,9.165354 0 0 0 9.16535,-9.1653"
         style="fill:none;stroke:#0000ff;stroke-opacity:1;stroke-width:0.09448819;stroke-miterlimit:4;stroke-dasharray:none"
         id="path5517" />
      <path
         d="M 206.74014,971.05512 H 21.543287"
         style="fill:none;stroke:#0000ff;stroke-opacity:1;stroke-width:0.09448819;stroke-miterlimit:4;stroke-dasharray:none"
         id="path5519" />
      <path
         d="m 12.377933,961.88976 a 9.165354,9.165354 0 0 0 9.165354,9.16536"
         style="fill:none;stroke:#0000ff;stroke-opacity:1;stroke-width:0.09448819;stroke-miterlimit:4;stroke-dasharray:none"
         id="path5521" />
      <path
         d="m 12.377933,961.88976 v -37.9011"
         style="fill:none;stroke:#0000ff;stroke-opacity:1;stroke-width:0.09448819;stroke-miterlimit:4;stroke-dasharray:none"
         id="path5523" />
      <path
         d="m 21.543287,914.8233 a 9.165354,9.165354 0 0 0 -9.165354,9.16536"
         style="fill:none;stroke:#0000ff;stroke-opacity:1;stroke-width:0.09448819;stroke-miterlimit:4;stroke-dasharray:none"
         id="path5525" />
      <path
         d="M 21.543287,914.8233 H 206.74014"
         style="fill:none;stroke:#0000ff;stroke-opacity:1;stroke-width:0.09448819;stroke-miterlimit:4;stroke-dasharray:none"
         id="path5527" />
      <path
         d="m 215.90549,923.98866 a 9.165354,9.165354 0 0 0 -9.16535,-9.16536"
         style="fill:none;stroke:#0000ff;stroke-opacity:1;stroke-width:0.09448819;stroke-miterlimit:4;stroke-dasharray:none"
         id="path5529" />
      <path
         d="m 215.90549,923.98866 v 37.9011"
         style="fill:none;stroke:#0000ff;stroke-opacity:1;stroke-width:0.09448819;stroke-miterlimit:4;stroke-dasharray:none"
         id="path5531" />
      <path
         d="m 206.74014,971.05512 a 9.165354,9.165354 0 0 0 9.16535,-9.16536"
         style="fill:none;stroke:#0000ff;stroke-opacity:1;stroke-width:0.09448819;stroke-miterlimit:4;stroke-dasharray:none"
         id="path5533" />
      <path
         d="m 435.11808,1218.8976 a 9.165354,9.165354 0 0 0 -9.16535,-9.1653"
         style="fill:none;stroke:#0000ff;stroke-opacity:1;stroke-width:0.09448819;stroke-miterlimit:4;stroke-dasharray:none"
         id="path5535" />
      <path
         d="m -424.44097,1209.7323 h 850.3937"
         style="fill:none;stroke:#0000ff;stroke-opacity:1;stroke-width:0.09448819;stroke-miterlimit:4;stroke-dasharray:none"
         id="path5537" />
      <path
         d="m -424.44097,1209.7323 a 9.165354,9.165354 0 0 0 -9.16536,9.1653"
         style="fill:none;stroke:#0000ff;stroke-opacity:1;stroke-width:0.09448819;stroke-miterlimit:4;stroke-dasharray:none"
         id="path5539" />
      <path
         d="m -433.60633,1249.1339 v -30.2363"
         style="fill:none;stroke:#0000ff;stroke-opacity:1;stroke-width:0.09448819;stroke-miterlimit:4;stroke-dasharray:none"
         id="path5541" />
      <path
         d="m -433.60633,1249.1339 a 9.165354,9.165354 0 0 0 9.16536,9.1653"
         style="fill:none;stroke:#0000ff;stroke-opacity:1;stroke-width:0.09448819;stroke-miterlimit:4;stroke-dasharray:none"
         id="path5543" />
      <path
         d="m 425.95273,1258.2992 h -850.3937"
         style="fill:none;stroke:#0000ff;stroke-opacity:1;stroke-width:0.09448819;stroke-miterlimit:4;stroke-dasharray:none"
         id="path5545" />
      <path
         d="m 425.95273,1258.2992 a 9.165354,9.165354 0 0 0 9.16535,-9.1653"
         style="fill:none;stroke:#0000ff;stroke-opacity:1;stroke-width:0.09448819;stroke-miterlimit:4;stroke-dasharray:none"
         id="path5547" />
      <path
         d="m 435.11808,1218.8976 v 30.2363"
         style="fill:none;stroke:#0000ff;stroke-opacity:1;stroke-width:0.09448819;stroke-miterlimit:4;stroke-dasharray:none"
         id="path5549" />
      <path
         d="m 248.31494,1270.2047 a 9.165354,9.165354 0 0 0 -9.16535,9.1654"
         style="fill:none;stroke:#0000ff;stroke-opacity:1;stroke-width:0.09448819;stroke-miterlimit:4;stroke-dasharray:none"
         id="path5551" />
      <path
         d="m 239.14959,1320.9449 v -41.5748"
         style="fill:none;stroke:#0000ff;stroke-opacity:1;stroke-width:0.09448819;stroke-miterlimit:4;stroke-dasharray:none"
         id="path5553" />
      <path
         d="m 239.14959,1320.9449 a 9.165354,9.165354 0 0 0 9.16535,9.1653"
         style="fill:none;stroke:#0000ff;stroke-opacity:1;stroke-width:0.09448819;stroke-miterlimit:4;stroke-dasharray:none"
         id="path5555" />
      <path
         d="M 425.95273,1330.1102 H 248.31494"
         style="fill:none;stroke:#0000ff;stroke-opacity:1;stroke-width:0.09448819;stroke-miterlimit:4;stroke-dasharray:none"
         id="path5557" />
      <path
         d="m 425.95273,1330.1102 a 9.165354,9.165354 0 0 0 9.16535,-9.1653"
         style="fill:none;stroke:#0000ff;stroke-opacity:1;stroke-width:0.09448819;stroke-miterlimit:4;stroke-dasharray:none"
         id="path5559" />
      <path
         d="m 435.11808,1279.3701 v 41.5748"
         style="fill:none;stroke:#0000ff;stroke-opacity:1;stroke-width:0.09448819;stroke-miterlimit:4;stroke-dasharray:none"
         id="path5561" />
      <path
         d="m 435.11808,1279.3701 a 9.165354,9.165354 0 0 0 -9.16535,-9.1654"
         style="fill:none;stroke:#0000ff;stroke-opacity:1;stroke-width:0.09448819;stroke-miterlimit:4;stroke-dasharray:none"
         id="path5563" />
      <path
         d="M 248.31494,1270.2047 H 425.95273"
         style="fill:none;stroke:#0000ff;stroke-opacity:1;stroke-width:0.09448819;stroke-miterlimit:4;stroke-dasharray:none"
         id="path5565" />
      <path
         d="m 248.31494,1134.1417 h 62.64567"
         style="fill:none;stroke:#0000ff;stroke-opacity:1;stroke-width:0.09448819;stroke-miterlimit:4;stroke-dasharray:none"
         id="path5567" />
      <path
         d="M 310.96061,1134.1417 V 1092"
         style="fill:none;stroke:#0000ff;stroke-opacity:1;stroke-width:0.09448819;stroke-miterlimit:4;stroke-dasharray:none"
         id="path5569" />
      <path
         d="M 310.96061,1092 H 248.31494"
         style="fill:none;stroke:#0000ff;stroke-opacity:1;stroke-width:0.09448819;stroke-miterlimit:4;stroke-dasharray:none"
         id="path5571" />
      <path
         d="M 239.14959,1082.8346 A 9.165354,9.165354 0 0 0 248.31494,1092"
         style="fill:none;stroke:#0000ff;stroke-opacity:1;stroke-width:0.09448819;stroke-miterlimit:4;stroke-dasharray:none"
         id="path5573" />
      <path
         d="m 239.14959,1082.8346 v -30.2362"
         style="fill:none;stroke:#0000ff;stroke-opacity:1;stroke-width:0.09448819;stroke-miterlimit:4;stroke-dasharray:none"
         id="path5575" />
      <path
         d="m 248.31494,1043.4331 a 9.165354,9.165354 0 0 0 -9.16535,9.1653"
         style="fill:none;stroke:#0000ff;stroke-opacity:1;stroke-width:0.09448819;stroke-miterlimit:4;stroke-dasharray:none"
         id="path5577" />
      <path
         d="M 248.31494,1043.4331 H 425.95273"
         style="fill:none;stroke:#0000ff;stroke-opacity:1;stroke-width:0.09448819;stroke-miterlimit:4;stroke-dasharray:none"
         id="path5579" />
      <path
         d="m 435.11808,1052.5984 a 9.165354,9.165354 0 0 0 -9.16535,-9.1653"
         style="fill:none;stroke:#0000ff;stroke-opacity:1;stroke-width:0.09448819;stroke-miterlimit:4;stroke-dasharray:none"
         id="path5581" />
      <path
         d="m 435.11808,1052.5984 v 30.2362"
         style="fill:none;stroke:#0000ff;stroke-opacity:1;stroke-width:0.09448819;stroke-miterlimit:4;stroke-dasharray:none"
         id="path5583" />
      <path
         d="m 425.95273,1092 a 9.165354,9.165354 0 0 0 9.16535,-9.1654"
         style="fill:none;stroke:#0000ff;stroke-opacity:1;stroke-width:0.09448819;stroke-miterlimit:4;stroke-dasharray:none"
         id="path5585" />
      <path
         d="m 425.95273,1092 h -55.0866"
         style="fill:none;stroke:#0000ff;stroke-opacity:1;stroke-width:0.09448819;stroke-miterlimit:4;stroke-dasharray:none"
         id="path5587" />
      <path
         d="m 370.86613,1092 v 42.1417"
         style="fill:none;stroke:#0000ff;stroke-opacity:1;stroke-width:0.09448819;stroke-miterlimit:4;stroke-dasharray:none"
         id="path5589" />
      <path
         d="m 370.86613,1134.1417 h 55.0866"
         style="fill:none;stroke:#0000ff;stroke-opacity:1;stroke-width:0.09448819;stroke-miterlimit:4;stroke-dasharray:none"
         id="path5591" />
      <path
         d="m 435.11808,1143.3071 a 9.165354,9.165354 0 0 0 -9.16535,-9.1654"
         style="fill:none;stroke:#0000ff;stroke-opacity:1;stroke-width:0.09448819;stroke-miterlimit:4;stroke-dasharray:none"
         id="path5593" />
      <path
         d="m 435.11808,1143.3071 v 50.6553"
         style="fill:none;stroke:#0000ff;stroke-opacity:1;stroke-width:0.09448819;stroke-miterlimit:4;stroke-dasharray:none"
         id="path5595" />
      <path
         d="m 431.62202,1197.4585 a 3.496063,3.496063 0 0 0 3.49606,-3.4961"
         style="fill:none;stroke:#0000ff;stroke-opacity:1;stroke-width:0.09448819;stroke-miterlimit:4;stroke-dasharray:none"
         id="path5597" />
      <path
         d="M 431.62202,1197.4585 H 242.64565"
         style="fill:none;stroke:#0000ff;stroke-opacity:1;stroke-width:0.09448819;stroke-miterlimit:4;stroke-dasharray:none"
         id="path5599" />
      <path
         d="m 239.14959,1193.9624 a 3.496063,3.496063 0 0 0 3.49606,3.4961"
         style="fill:none;stroke:#0000ff;stroke-opacity:1;stroke-width:0.09448819;stroke-miterlimit:4;stroke-dasharray:none"
         id="path5601" />
      <path
         d="m 239.14959,1193.9624 v -50.6553"
         style="fill:none;stroke:#0000ff;stroke-opacity:1;stroke-width:0.09448819;stroke-miterlimit:4;stroke-dasharray:none"
         id="path5603" />
      <path
         d="m 248.31494,1134.1417 a 9.165354,9.165354 0 0 0 -9.16535,9.1654"
         style="fill:none;stroke:#0000ff;stroke-opacity:1;stroke-width:0.09448819;stroke-miterlimit:4;stroke-dasharray:none"
         id="path5605" />
      <path
         d="m 239.14959,961.88976 a 9.165354,9.165354 0 0 0 9.16535,9.16536"
         style="fill:none;stroke:#0000ff;stroke-opacity:1;stroke-width:0.09448819;stroke-miterlimit:4;stroke-dasharray:none"
         id="path5607" />
      <path
         d="M 425.95273,971.05512 H 248.31494"
         style="fill:none;stroke:#0000ff;stroke-opacity:1;stroke-width:0.09448819;stroke-miterlimit:4;stroke-dasharray:none"
         id="path5609" />
      <path
         d="m 425.95273,971.05512 a 9.165354,9.165354 0 0 0 9.16535,-9.16536"
         style="fill:none;stroke:#0000ff;stroke-opacity:1;stroke-width:0.09448819;stroke-miterlimit:4;stroke-dasharray:none"
         id="path5611" />
      <path
         d="m 435.11808,923.98866 v 37.9011"
         style="fill:none;stroke:#0000ff;stroke-opacity:1;stroke-width:0.09448819;stroke-miterlimit:4;stroke-dasharray:none"
         id="path5613" />
      <path
         d="m 435.11808,923.98866 a 9.165354,9.165354 0 0 0 -9.16535,-9.16536"
         style="fill:none;stroke:#0000ff;stroke-opacity:1;stroke-width:0.09448819;stroke-miterlimit:4;stroke-dasharray:none"
         id="path5615" />
      <path
         d="M 248.31494,914.8233 H 425.95273"
         style="fill:none;stroke:#0000ff;stroke-opacity:1;stroke-width:0.09448819;stroke-miterlimit:4;stroke-dasharray:none"
         id="path5617" />
      <path
         d="m 248.31494,914.8233 a 9.165354,9.165354 0 0 0 -9.16535,9.16536"
         style="fill:none;stroke:#0000ff;stroke-opacity:1;stroke-width:0.09448819;stroke-miterlimit:4;stroke-dasharray:none"
         id="path5619" />
      <path
         d="m 239.14959,961.88976 v -37.9011"
         style="fill:none;stroke:#0000ff;stroke-opacity:1;stroke-width:0.09448819;stroke-miterlimit:4;stroke-dasharray:none"
         id="path5621" />
      <path
         d="m 212.40943,1197.4585 a 3.496063,3.496063 0 0 0 3.49606,-3.4961"
         style="fill:none;stroke:#0000ff;stroke-opacity:1;stroke-width:0.09448819;stroke-miterlimit:4;stroke-dasharray:none"
         id="path5623" />
      <path
         d="m 215.90549,1143.3071 v 50.6553"
         style="fill:none;stroke:#0000ff;stroke-opacity:1;stroke-width:0.09448819;stroke-miterlimit:4;stroke-dasharray:none"
         id="path5625" />
      <path
         d="m 215.90549,1143.3071 a 9.165354,9.165354 0 0 0 -9.16535,-9.1654"
         style="fill:none;stroke:#0000ff;stroke-opacity:1;stroke-width:0.09448819;stroke-miterlimit:4;stroke-dasharray:none"
         id="path5627" />
      <path
         d="m 144.09447,1134.1417 h 62.64567"
         style="fill:none;stroke:#0000ff;stroke-opacity:1;stroke-width:0.09448819;stroke-miterlimit:4;stroke-dasharray:none"
         id="path5629" />
      <path
         d="m 144.09447,1092 v 42.1417"
         style="fill:none;stroke:#0000ff;stroke-opacity:1;stroke-width:0.09448819;stroke-miterlimit:4;stroke-dasharray:none"
         id="path5631" />
      <path
         d="M 206.74014,1092 H 144.09447"
         style="fill:none;stroke:#0000ff;stroke-opacity:1;stroke-width:0.09448819;stroke-miterlimit:4;stroke-dasharray:none"
         id="path5633" />
      <path
         d="m 206.74014,1092 a 9.165354,9.165354 0 0 0 9.16535,-9.1654"
         style="fill:none;stroke:#0000ff;stroke-opacity:1;stroke-width:0.09448819;stroke-miterlimit:4;stroke-dasharray:none"
         id="path5635" />
      <path
         d="m 215.90549,1052.5984 v 30.2362"
         style="fill:none;stroke:#0000ff;stroke-opacity:1;stroke-width:0.09448819;stroke-miterlimit:4;stroke-dasharray:none"
         id="path5637" />
      <path
         d="m 215.90549,1052.5984 a 9.165354,9.165354 0 0 0 -9.16535,-9.1653"
         style="fill:none;stroke:#0000ff;stroke-opacity:1;stroke-width:0.09448819;stroke-miterlimit:4;stroke-dasharray:none"
         id="path5639" />
      <path
         d="M 21.543287,1043.4331 H 206.74014"
         style="fill:none;stroke:#0000ff;stroke-opacity:1;stroke-width:0.09448819;stroke-miterlimit:4;stroke-dasharray:none"
         id="path5641" />
      <path
         d="m 21.543287,1043.4331 a 9.165354,9.165354 0 0 0 -9.165354,9.1653"
         style="fill:none;stroke:#0000ff;stroke-opacity:1;stroke-width:0.09448819;stroke-miterlimit:4;stroke-dasharray:none"
         id="path5643" />
      <path
         d="m 12.377933,1082.8346 v -30.2362"
         style="fill:none;stroke:#0000ff;stroke-opacity:1;stroke-width:0.09448819;stroke-miterlimit:4;stroke-dasharray:none"
         id="path5645" />
      <path
         d="M 12.377933,1082.8346 A 9.165354,9.165354 0 0 0 21.543287,1092"
         style="fill:none;stroke:#0000ff;stroke-opacity:1;stroke-width:0.09448819;stroke-miterlimit:4;stroke-dasharray:none"
         id="path5647" />
      <path
         d="M 84.188957,1092 H 21.543287"
         style="fill:none;stroke:#0000ff;stroke-opacity:1;stroke-width:0.09448819;stroke-miterlimit:4;stroke-dasharray:none"
         id="path5649" />
      <path
         d="M 84.188957,1134.1417 V 1092"
         style="fill:none;stroke:#0000ff;stroke-opacity:1;stroke-width:0.09448819;stroke-miterlimit:4;stroke-dasharray:none"
         id="path5651" />
      <path
         d="m 21.543287,1134.1417 h 62.64567"
         style="fill:none;stroke:#0000ff;stroke-opacity:1;stroke-width:0.09448819;stroke-miterlimit:4;stroke-dasharray:none"
         id="path5653" />
      <path
         d="m 21.543287,1134.1417 a 9.165354,9.165354 0 0 0 -9.165354,9.1654"
         style="fill:none;stroke:#0000ff;stroke-opacity:1;stroke-width:0.09448819;stroke-miterlimit:4;stroke-dasharray:none"
         id="path5655" />
      <path
         d="m 12.377933,1193.9624 v -50.6553"
         style="fill:none;stroke:#0000ff;stroke-opacity:1;stroke-width:0.09448819;stroke-miterlimit:4;stroke-dasharray:none"
         id="path5657" />
      <path
         d="m 12.377933,1193.9624 a 3.496063,3.496063 0 0 0 3.496063,3.4961"
         style="fill:none;stroke:#0000ff;stroke-opacity:1;stroke-width:0.09448819;stroke-miterlimit:4;stroke-dasharray:none"
         id="path5659" />
      <path
         d="M 212.40943,1197.4585 H 15.873996"
         style="fill:none;stroke:#0000ff;stroke-opacity:1;stroke-width:0.09448819;stroke-miterlimit:4;stroke-dasharray:none"
         id="path5661" />
      <path
         d="M 21.543287,1270.2047 H 206.74014"
         style="fill:none;stroke:#0000ff;stroke-opacity:1;stroke-width:0.09448819;stroke-miterlimit:4;stroke-dasharray:none"
         id="path5663" />
      <path
         d="m 215.90549,1279.3701 a 9.165354,9.165354 0 0 0 -9.16535,-9.1654"
         style="fill:none;stroke:#0000ff;stroke-opacity:1;stroke-width:0.09448819;stroke-miterlimit:4;stroke-dasharray:none"
         id="path5665" />
      <path
         d="m 215.90549,1279.3701 v 41.5748"
         style="fill:none;stroke:#0000ff;stroke-opacity:1;stroke-width:0.09448819;stroke-miterlimit:4;stroke-dasharray:none"
         id="path5667" />
      <path
         d="m 206.74014,1330.1102 a 9.165354,9.165354 0 0 0 9.16535,-9.1653"
         style="fill:none;stroke:#0000ff;stroke-opacity:1;stroke-width:0.09448819;stroke-miterlimit:4;stroke-dasharray:none"
         id="path5669" />
      <path
         d="M 206.74014,1330.1102 H 21.543287"
         style="fill:none;stroke:#0000ff;stroke-opacity:1;stroke-width:0.09448819;stroke-miterlimit:4;stroke-dasharray:none"
         id="path5671" />
      <path
         d="m 12.377933,1320.9449 a 9.165354,9.165354 0 0 0 9.165354,9.1653"
         style="fill:none;stroke:#0000ff;stroke-opacity:1;stroke-width:0.09448819;stroke-miterlimit:4;stroke-dasharray:none"
         id="path5673" />
      <path
         d="m 12.377933,1320.9449 v -41.5748"
         style="fill:none;stroke:#0000ff;stroke-opacity:1;stroke-width:0.09448819;stroke-miterlimit:4;stroke-dasharray:none"
         id="path5675" />
      <path
         d="m 21.543287,1270.2047 a 9.165354,9.165354 0 0 0 -9.165354,9.1654"
         style="fill:none;stroke:#0000ff;stroke-opacity:1;stroke-width:0.09448819;stroke-miterlimit:4;stroke-dasharray:none"
         id="path5677" />
      <path
         d="M -20.031517,1330.1102 H -205.22837"
         style="fill:none;stroke:#0000ff;stroke-opacity:1;stroke-width:0.09448819;stroke-miterlimit:4;stroke-dasharray:none"
         id="path5679" />
      <path
         d="m -214.39372,1320.9449 a 9.165354,9.165354 0 0 0 9.16535,9.1653"
         style="fill:none;stroke:#0000ff;stroke-opacity:1;stroke-width:0.09448819;stroke-miterlimit:4;stroke-dasharray:none"
         id="path5681" />
      <path
         d="m -214.39372,1320.9449 v -41.5748"
         style="fill:none;stroke:#0000ff;stroke-opacity:1;stroke-width:0.09448819;stroke-miterlimit:4;stroke-dasharray:none"
         id="path5683" />
      <path
         d="m -205.22837,1270.2047 a 9.165354,9.165354 0 0 0 -9.16535,9.1654"
         style="fill:none;stroke:#0000ff;stroke-opacity:1;stroke-width:0.09448819;stroke-miterlimit:4;stroke-dasharray:none"
         id="path5685" />
      <path
         d="M -205.22837,1270.2047 H -20.031517"
         style="fill:none;stroke:#0000ff;stroke-opacity:1;stroke-width:0.09448819;stroke-miterlimit:4;stroke-dasharray:none"
         id="path5687" />
      <path
         d="m -10.866162,1279.3701 a 9.165354,9.165354 0 0 0 -9.165355,-9.1654"
         style="fill:none;stroke:#0000ff;stroke-opacity:1;stroke-width:0.09448819;stroke-miterlimit:4;stroke-dasharray:none"
         id="path5689" />
      <path
         d="m -10.866162,1279.3701 v 41.5748"
         style="fill:none;stroke:#0000ff;stroke-opacity:1;stroke-width:0.09448819;stroke-miterlimit:4;stroke-dasharray:none"
         id="path5691" />
      <path
         d="m -20.031517,1330.1102 a 9.165354,9.165354 0 0 0 9.165355,-9.1653"
         style="fill:none;stroke:#0000ff;stroke-opacity:1;stroke-width:0.09448819;stroke-miterlimit:4;stroke-dasharray:none"
         id="path5693" />
      <path
         d="m -214.39372,961.88976 a 9.165354,9.165354 0 0 0 9.16535,9.16536"
         style="fill:none;stroke:#0000ff;stroke-opacity:1;stroke-width:0.09448819;stroke-miterlimit:4;stroke-dasharray:none"
         id="path5695" />
      <path
         d="M -20.031517,971.05512 H -205.22837"
         style="fill:none;stroke:#0000ff;stroke-opacity:1;stroke-width:0.09448819;stroke-miterlimit:4;stroke-dasharray:none"
         id="path5697" />
      <path
         d="m -20.031517,971.05512 a 9.165354,9.165354 0 0 0 9.165355,-9.16536"
         style="fill:none;stroke:#0000ff;stroke-opacity:1;stroke-width:0.09448819;stroke-miterlimit:4;stroke-dasharray:none"
         id="path5699" />
      <path
         d="m -10.866162,923.98866 v 37.9011"
         style="fill:none;stroke:#0000ff;stroke-opacity:1;stroke-width:0.09448819;stroke-miterlimit:4;stroke-dasharray:none"
         id="path5701" />
      <path
         d="m -10.866162,923.98866 a 9.165354,9.165354 0 0 0 -9.165355,-9.16536"
         style="fill:none;stroke:#0000ff;stroke-opacity:1;stroke-width:0.09448819;stroke-miterlimit:4;stroke-dasharray:none"
         id="path5703" />
      <path
         d="M -205.22837,914.8233 H -20.031517"
         style="fill:none;stroke:#0000ff;stroke-opacity:1;stroke-width:0.09448819;stroke-miterlimit:4;stroke-dasharray:none"
         id="path5705" />
      <path
         d="m -205.22837,914.8233 a 9.165354,9.165354 0 0 0 -9.16535,9.16536"
         style="fill:none;stroke:#0000ff;stroke-opacity:1;stroke-width:0.09448819;stroke-miterlimit:4;stroke-dasharray:none"
         id="path5707" />
      <path
         d="m -214.39372,961.88976 v -37.9011"
         style="fill:none;stroke:#0000ff;stroke-opacity:1;stroke-width:0.09448819;stroke-miterlimit:4;stroke-dasharray:none"
         id="path5709" />
      <path
         d="m -424.44097,914.8233 h 177.6378"
         style="fill:none;stroke:#0000ff;stroke-opacity:1;stroke-width:0.09448819;stroke-miterlimit:4;stroke-dasharray:none"
         id="path5711" />
      <path
         d="m -424.44097,914.8233 a 9.165354,9.165354 0 0 0 -9.16536,9.16536"
         style="fill:none;stroke:#0000ff;stroke-opacity:1;stroke-width:0.09448819;stroke-miterlimit:4;stroke-dasharray:none"
         id="path5713" />
      <path
         d="m -433.60633,961.88976 v -37.9011"
         style="fill:none;stroke:#0000ff;stroke-opacity:1;stroke-width:0.09448819;stroke-miterlimit:4;stroke-dasharray:none"
         id="path5715" />
      <path
         d="m -433.60633,961.88976 a 9.165354,9.165354 0 0 0 9.16536,9.16536"
         style="fill:none;stroke:#0000ff;stroke-opacity:1;stroke-width:0.09448819;stroke-miterlimit:4;stroke-dasharray:none"
         id="path5717" />
      <path
         d="m -385.03274,971.05512 h -39.40823"
         style="fill:none;stroke:#0000ff;stroke-opacity:1;stroke-width:0.09448819;stroke-miterlimit:4;stroke-dasharray:none"
         id="path5719" />
      <path
         d="m -385.03274,971.05512 a 0.661417,0.661417 0 0 0 0.61409,0"
         style="fill:none;stroke:#0000ff;stroke-opacity:1;stroke-width:0.09448819;stroke-miterlimit:4;stroke-dasharray:none"
         id="path5721" />
      <path
         d="M -246.80317,971.05512 H -384.41865"
         style="fill:none;stroke:#0000ff;stroke-opacity:1;stroke-width:0.09448819;stroke-miterlimit:4;stroke-dasharray:none"
         id="path5723" />
      <path
         d="m -246.80317,971.05512 a 9.165354,9.165354 0 0 0 9.16535,-9.16536"
         style="fill:none;stroke:#0000ff;stroke-opacity:1;stroke-width:0.09448819;stroke-miterlimit:4;stroke-dasharray:none"
         id="path5725" />
      <path
         d="m -237.63782,923.98866 v 37.9011"
         style="fill:none;stroke:#0000ff;stroke-opacity:1;stroke-width:0.09448819;stroke-miterlimit:4;stroke-dasharray:none"
         id="path5727" />
      <path
         d="m -237.63782,923.98866 a 9.165354,9.165354 0 0 0 -9.16535,-9.16536"
         style="fill:none;stroke:#0000ff;stroke-opacity:1;stroke-width:0.09448819;stroke-miterlimit:4;stroke-dasharray:none"
         id="path5729" />
      <path
         d="m -205.22837,1134.1417 h 62.64567"
         style="fill:none;stroke:#0000ff;stroke-opacity:1;stroke-width:0.09448819;stroke-miterlimit:4;stroke-dasharray:none"
         id="path5731" />
      <path
         d="m -205.22837,1134.1417 a 9.165354,9.165354 0 0 0 -9.16535,9.1654"
         style="fill:none;stroke:#0000ff;stroke-opacity:1;stroke-width:0.09448819;stroke-miterlimit:4;stroke-dasharray:none"
         id="path5733" />
      <path
         d="m -214.39372,1193.9624 v -50.6553"
         style="fill:none;stroke:#0000ff;stroke-opacity:1;stroke-width:0.09448819;stroke-miterlimit:4;stroke-dasharray:none"
         id="path5735" />
      <path
         d="m -214.39372,1193.9624 a 3.496063,3.496063 0 0 0 3.49606,3.4961"
         style="fill:none;stroke:#0000ff;stroke-opacity:1;stroke-width:0.09448819;stroke-miterlimit:4;stroke-dasharray:none"
         id="path5737" />
      <path
         d="M -14.362225,1197.4585 H -210.89766"
         style="fill:none;stroke:#0000ff;stroke-opacity:1;stroke-width:0.09448819;stroke-miterlimit:4;stroke-dasharray:none"
         id="path5739" />
      <path
         d="m -14.362225,1197.4585 a 3.496063,3.496063 0 0 0 3.496063,-3.4961"
         style="fill:none;stroke:#0000ff;stroke-opacity:1;stroke-width:0.09448819;stroke-miterlimit:4;stroke-dasharray:none"
         id="path5741" />
      <path
         d="m -10.866162,1143.3071 v 50.6553"
         style="fill:none;stroke:#0000ff;stroke-opacity:1;stroke-width:0.09448819;stroke-miterlimit:4;stroke-dasharray:none"
         id="path5743" />
      <path
         d="m -10.866162,1143.3071 a 9.165354,9.165354 0 0 0 -9.165355,-9.1654"
         style="fill:none;stroke:#0000ff;stroke-opacity:1;stroke-width:0.09448819;stroke-miterlimit:4;stroke-dasharray:none"
         id="path5745" />
      <path
         d="m -82.677187,1134.1417 h 62.64567"
         style="fill:none;stroke:#0000ff;stroke-opacity:1;stroke-width:0.09448819;stroke-miterlimit:4;stroke-dasharray:none"
         id="path5747" />
      <path
         d="m -82.677187,1092 v 42.1417"
         style="fill:none;stroke:#0000ff;stroke-opacity:1;stroke-width:0.09448819;stroke-miterlimit:4;stroke-dasharray:none"
         id="path5749" />
      <path
         d="m -20.031517,1092 h -62.64567"
         style="fill:none;stroke:#0000ff;stroke-opacity:1;stroke-width:0.09448819;stroke-miterlimit:4;stroke-dasharray:none"
         id="path5751" />
      <path
         d="m -20.031517,1092 a 9.165354,9.165354 0 0 0 9.165355,-9.1654"
         style="fill:none;stroke:#0000ff;stroke-opacity:1;stroke-width:0.09448819;stroke-miterlimit:4;stroke-dasharray:none"
         id="path5753" />
      <path
         d="m -10.866162,1052.5984 v 30.2362"
         style="fill:none;stroke:#0000ff;stroke-opacity:1;stroke-width:0.09448819;stroke-miterlimit:4;stroke-dasharray:none"
         id="path5755" />
      <path
         d="m -10.866162,1052.5984 a 9.165354,9.165354 0 0 0 -9.165355,-9.1653"
         style="fill:none;stroke:#0000ff;stroke-opacity:1;stroke-width:0.09448819;stroke-miterlimit:4;stroke-dasharray:none"
         id="path5757" />
      <path
         d="M -205.22837,1043.4331 H -20.031517"
         style="fill:none;stroke:#0000ff;stroke-opacity:1;stroke-width:0.09448819;stroke-miterlimit:4;stroke-dasharray:none"
         id="path5759" />
      <path
         d="m -205.22837,1043.4331 a 9.165354,9.165354 0 0 0 -9.16535,9.1653"
         style="fill:none;stroke:#0000ff;stroke-opacity:1;stroke-width:0.09448819;stroke-miterlimit:4;stroke-dasharray:none"
         id="path5761" />
      <path
         d="m -214.39372,1082.8346 v -30.2362"
         style="fill:none;stroke:#0000ff;stroke-opacity:1;stroke-width:0.09448819;stroke-miterlimit:4;stroke-dasharray:none"
         id="path5763" />
      <path
         d="m -214.39372,1082.8346 a 9.165354,9.165354 0 0 0 9.16535,9.1654"
         style="fill:none;stroke:#0000ff;stroke-opacity:1;stroke-width:0.09448819;stroke-miterlimit:4;stroke-dasharray:none"
         id="path5765" />
      <path
         d="m -142.5827,1092 h -62.64567"
         style="fill:none;stroke:#0000ff;stroke-opacity:1;stroke-width:0.09448819;stroke-miterlimit:4;stroke-dasharray:none"
         id="path5767" />
      <path
         d="M -142.5827,1134.1417 V 1092"
         style="fill:none;stroke:#0000ff;stroke-opacity:1;stroke-width:0.09448819;stroke-miterlimit:4;stroke-dasharray:none"
         id="path5769" />
    </g>
    <rect
       y="85.956444"
       x="382.04352"
       height="45.354328"
       width="52.3465"
       id="rect6553"
       style="fill:#000000;stroke:none;stroke-width:0.0944882;stroke-miterlimit:4;stroke-dasharray:none;stroke-opacity:1" />
  </g>
  <desc
     id="desc5773">Adafruit NeoTrellis 4x4 v51 - Middle +1.dxf - scale = 1.000000, origin = (0.000000, 0.000000), method = manual</desc>
</svg>
