<?xml version="1.0" encoding="UTF-8" standalone="no"?>
<svg
   xmlns:dc="http://purl.org/dc/elements/1.1/"
   xmlns:cc="http://creativecommons.org/ns#"
   xmlns:rdf="http://www.w3.org/1999/02/22-rdf-syntax-ns#"
   xmlns:svg="http://www.w3.org/2000/svg"
   xmlns="http://www.w3.org/2000/svg"
   viewBox="0 0 358.66666 340"
   height="340"
   width="358.66666"
   xml:space="preserve"
   id="svg6201"
   version="1.1"><metadata
     id="metadata6207"><rdf:RDF><cc:Work
         rdf:about=""><dc:format>image/svg+xml</dc:format><dc:type
           rdf:resource="http://purl.org/dc/dcmitype/StillImage" /><dc:title></dc:title></cc:Work></rdf:RDF></metadata><defs
     id="defs6205" /><g
     transform="matrix(1.3333333,0,0,-1.3333333,0,340)"
     id="g6209"
     style="stroke:#0000ff;stroke-opacity:1;stroke-width:0.0705;stroke-miterlimit:4;stroke-dasharray:none"><g
       style="stroke:#0000ff;stroke-opacity:1;stroke-width:0.70500002;stroke-miterlimit:4;stroke-dasharray:none"
       transform="scale(0.1)"
       id="g6211"><path
         id="path6213"
         style="fill:none;stroke:#0000ff;stroke-width:0.70500002;stroke-linecap:butt;stroke-linejoin:miter;stroke-miterlimit:4;stroke-dasharray:none;stroke-opacity:1"
         d="m 684.531,387.77 c 0.039,44.179 -17.5,86.57 -48.75,117.82 -31.211,31.25 -73.59,48.82 -117.769,48.82 -44.184,0 -86.563,-17.57 -117.782,-48.82 -31.25,-31.25 -48.781,-73.641 -48.75,-117.82 -0.031,-44.18 17.5,-86.559 48.75,-117.77 31.219,-31.25 73.598,-48.828 117.782,-48.828 44.179,0 86.558,17.578 117.769,48.828 31.25,31.211 48.789,73.59 48.75,117.77 z" /><path
         id="path6215"
         style="fill:none;stroke:#0000ff;stroke-width:0.70500002;stroke-linecap:butt;stroke-linejoin:miter;stroke-miterlimit:4;stroke-dasharray:none;stroke-opacity:1"
         d="m 684.531,2151.8 c 0.039,44.14 -17.5,86.52 -48.75,117.77 -31.25,31.25 -73.59,48.79 -117.769,48.79 -44.184,0 -86.563,-17.54 -117.782,-48.79 -31.25,-31.25 -48.781,-73.63 -48.75,-117.77 -0.031,-44.18 17.5,-86.57 48.75,-117.82 31.219,-31.25 73.598,-48.78 117.782,-48.78 44.179,0 86.519,17.53 117.769,48.78 31.25,31.25 48.789,73.64 48.75,117.82 z" /><path
         id="path6217"
         style="fill:none;stroke:#0000ff;stroke-width:0.70500002;stroke-linecap:butt;stroke-linejoin:miter;stroke-miterlimit:4;stroke-dasharray:none;stroke-opacity:1"
         d="m 1260.55,2151.8 c 0,44.14 -17.54,86.52 -48.79,117.73 -31.21,31.25 -73.6,48.79 -117.74,48.79 -44.18,0 -86.56,-17.54 -117.77,-48.79 -31.25,-31.21 -48.789,-73.59 -48.789,-117.73 0,-44.18 17.539,-86.53 48.789,-117.78 31.21,-31.21 73.59,-48.79 117.77,-48.79 44.14,0 86.53,17.58 117.74,48.79 31.25,31.25 48.79,73.6 48.79,117.78 z" /><path
         id="path6219"
         style="fill:none;stroke:#0000ff;stroke-width:0.70500002;stroke-linecap:butt;stroke-linejoin:miter;stroke-miterlimit:4;stroke-dasharray:none;stroke-opacity:1"
         d="m 1902.62,2141.6 c 0,60.67 -49.18,109.85 -109.85,109.85 -60.66,0 -109.84,-49.18 -109.84,-109.85 0,-29.1 11.56,-57.07 32.19,-77.65 20.58,-20.59 48.51,-32.19 77.65,-32.19 29.14,0 57.07,11.6 77.66,32.19 20.62,20.58 32.19,48.55 32.19,77.65 z" /><path
         id="path6221"
         style="fill:none;stroke:#0000ff;stroke-width:0.70500002;stroke-linecap:butt;stroke-linejoin:miter;stroke-miterlimit:4;stroke-dasharray:none;stroke-opacity:1"
         d="m 2334.61,2141.64 c 0,60.66 -49.18,109.84 -109.84,109.84 -60.67,0 -109.85,-49.18 -109.85,-109.84 0,-29.14 11.56,-57.07 32.15,-77.69 20.63,-20.59 48.55,-32.15 77.7,-32.15 29.14,0 57.07,11.56 77.65,32.15 20.63,20.62 32.19,48.55 32.19,77.69 z" /><path
         id="path6223"
         style="fill:none;stroke:#0000ff;stroke-width:0.70500002;stroke-linecap:butt;stroke-linejoin:miter;stroke-miterlimit:4;stroke-dasharray:none;stroke-opacity:1"
         d="m 1038.59,377.66 c 0.04,29.141 -11.56,57.07 -32.14,77.692 -20.591,20.628 -48.559,32.23 -77.7,32.23 -29.141,0 -57.109,-11.602 -77.699,-32.23 -20.621,-20.622 -32.18,-48.551 -32.141,-77.692 -0.039,-29.18 11.52,-57.109 32.141,-77.738 20.59,-20.621 48.558,-32.223 77.699,-32.223 29.141,0 57.109,11.602 77.7,32.223 20.58,20.629 32.18,48.558 32.14,77.738 z" /><path
         id="path6225"
         style="fill:none;stroke:#0000ff;stroke-width:0.70500002;stroke-linecap:butt;stroke-linejoin:miter;stroke-miterlimit:4;stroke-dasharray:none;stroke-opacity:1"
         d="M 2390.94,1812.27 V 725.199" /><path
         id="path6227"
         style="fill:none;stroke:#0000ff;stroke-width:0.70500002;stroke-linecap:butt;stroke-linejoin:miter;stroke-miterlimit:4;stroke-dasharray:none;stroke-opacity:1"
         d="M 2390.94,725.199 H 300.391" /><path
         id="path6229"
         style="fill:none;stroke:#0000ff;stroke-width:0.70500002;stroke-linecap:butt;stroke-linejoin:miter;stroke-miterlimit:4;stroke-dasharray:none;stroke-opacity:1"
         d="M 300.391,725.199 V 1812.27" /><path
         id="path6231"
         style="fill:none;stroke:#0000ff;stroke-width:0.70500002;stroke-linecap:butt;stroke-linejoin:miter;stroke-miterlimit:4;stroke-dasharray:none;stroke-opacity:1"
         d="M 300.391,1812.27 H 2390.94" /><path
         id="path6233"
         style="fill:none;stroke:#0000ff;stroke-width:0.70500002;stroke-linecap:butt;stroke-linejoin:miter;stroke-miterlimit:4;stroke-dasharray:none;stroke-opacity:1"
         d="M 2589.61,2539.38 H 95.1211" /><path
         id="path6235"
         style="fill:none;stroke:#0000ff;stroke-width:0.70500002;stroke-linecap:butt;stroke-linejoin:miter;stroke-miterlimit:4;stroke-dasharray:none;stroke-opacity:1"
         d="m 95.1211,2539.38 c -48.9492,0 -88.60157,-39.69 -88.60157,-88.6" /><path
         id="path6237"
         style="fill:none;stroke:#0000ff;stroke-width:0.70500002;stroke-linecap:butt;stroke-linejoin:miter;stroke-miterlimit:4;stroke-dasharray:none;stroke-opacity:1"
         d="M 6.51953,2450.78 V 98.0117" /><path
         id="path6239"
         style="fill:none;stroke:#0000ff;stroke-width:0.70500002;stroke-linecap:butt;stroke-linejoin:miter;stroke-miterlimit:4;stroke-dasharray:none;stroke-opacity:1"
         d="M 6.51953,98.0117 C 6.51953,49.1016 46.1719,9.44922 95.1211,9.44922" /><path
         id="path6241"
         style="fill:none;stroke:#0000ff;stroke-width:0.70500002;stroke-linecap:butt;stroke-linejoin:miter;stroke-miterlimit:4;stroke-dasharray:none;stroke-opacity:1"
         d="M 95.1211,9.44922 H 2589.61" /><path
         id="path6243"
         style="fill:none;stroke:#0000ff;stroke-width:0.70500002;stroke-linecap:butt;stroke-linejoin:miter;stroke-miterlimit:4;stroke-dasharray:none;stroke-opacity:1"
         d="m 2589.61,9.44922 c 48.91,0 88.55,39.65238 88.55,88.56248" /><path
         id="path6245"
         style="fill:none;stroke:#0000ff;stroke-width:0.70500002;stroke-linecap:butt;stroke-linejoin:miter;stroke-miterlimit:4;stroke-dasharray:none;stroke-opacity:1"
         d="M 2678.16,98.0117 V 2450.78" /><path
         id="path6247"
         style="fill:none;stroke:#0000ff;stroke-width:0.70500002;stroke-linecap:butt;stroke-linejoin:miter;stroke-miterlimit:4;stroke-dasharray:none;stroke-opacity:1"
         d="m 2678.16,2450.78 c 0,23.48 -9.33,46.02 -25.93,62.66 -16.61,16.6 -39.14,25.94 -62.62,25.94" /></g></g></svg>
