<?xml version="1.0" encoding="UTF-8" standalone="no"?>
<svg
   xmlns:dc="http://purl.org/dc/elements/1.1/"
   xmlns:cc="http://creativecommons.org/ns#"
   xmlns:rdf="http://www.w3.org/1999/02/22-rdf-syntax-ns#"
   xmlns:svg="http://www.w3.org/2000/svg"
   xmlns="http://www.w3.org/2000/svg"
   id="svg6092"
   version="1.1"
   viewBox="0 0 210 297"
   height="297mm"
   width="210mm">
  <defs
     id="defs6086">
    <marker
       id="DistanceX"
       orient="auto"
       refX="0.0"
       refY="0.0"
       style="overflow:visible">
      <path
         d="M 3,-3 L -3,3 M 0,-5 L  0,5"
         style="stroke:#000000; stroke-width:0.5"
         id="path6094" />
    </marker>
    <pattern
       id="Hatch"
       patternUnits="userSpaceOnUse"
       width="8"
       height="8"
       x="0"
       y="0">
      <path
         d="M8 4 l-4,4"
         stroke="#000000"
         stroke-width="0.25"
         linecap="square"
         id="path6097" />
      <path
         d="M6 2 l-4,4"
         stroke="#000000"
         stroke-width="0.25"
         linecap="square"
         id="path6099" />
      <path
         d="M4 0 l-4,4"
         stroke="#000000"
         stroke-width="0.25"
         linecap="square"
         id="path6101" />
    </pattern>
    <symbol
       id="*MODEL_SPACE" />
    <symbol
       id="*PAPER_SPACE" />
  </defs>
  <metadata
     id="metadata6089">
    <rdf:RDF>
      <cc:Work
         rdf:about="">
        <dc:format>image/svg+xml</dc:format>
        <dc:type
           rdf:resource="http://purl.org/dc/dcmitype/StillImage" />
        <dc:title></dc:title>
      </cc:Work>
    </rdf:RDF>
  </metadata>
  <g
     id="layer1"
     style="stroke:#0000ff;stroke-opacity:1;stroke-width:0.025;stroke-miterlimit:4;stroke-dasharray:none">
    <g
       style="stroke:#0000ff;stroke-opacity:1;stroke-width:0.025;stroke-miterlimit:4;stroke-dasharray:none"
       transform="translate(283.48214,167.06547)"
       id="g6199">
      <g
         style="stroke:#0000ff;stroke-opacity:1;stroke-width:0.09448819;stroke-miterlimit:4;stroke-dasharray:none"
         id="g6178"
         transform="matrix(0.26458333,0,0,0.26458333,-225.27381,-409.6369)">
        <g
           style="stroke:#0000ff;stroke-opacity:1;stroke-width:0.09448819;stroke-miterlimit:4;stroke-dasharray:none"
           id="g6108" />
        <g
           style="stroke:#0000ff;stroke-opacity:1;stroke-width:0.09448819;stroke-miterlimit:4;stroke-dasharray:none"
           id="g6124">
          <path
             id="path6110"
             style="fill:none;stroke:#0000ff;stroke-opacity:1;stroke-width:0.09448819;stroke-miterlimit:4;stroke-dasharray:none"
             d="m 152.54407,1261.0567 a 4.8189,4.8189 0 1 0 -9.6378,0 4.8189,4.8189 0 1 0 9.6378,0 z" />
          <path
             id="path6112"
             style="fill:none;stroke:#0000ff;stroke-opacity:1;stroke-width:0.09448819;stroke-miterlimit:4;stroke-dasharray:none"
             d="m -142.69861,985.14827 a 4.8189,4.8189 0 1 0 -9.6378,0 4.8189,4.8189 0 1 0 9.6378,0 z" />
          <path
             id="path6114"
             style="fill:none;stroke:#0000ff;stroke-opacity:1;stroke-width:0.09448819;stroke-miterlimit:4;stroke-dasharray:none"
             d="m 152.54407,985.14564 a 4.8189,4.8189 0 1 0 -9.6378,0 4.8189,4.8189 0 1 0 9.6378,0 z" />
          <path
             id="path6116"
             style="fill:none;stroke:#0000ff;stroke-opacity:1;stroke-width:0.09448819;stroke-miterlimit:4;stroke-dasharray:none"
             d="m 76.699581,1261.0567 a 4.818898,4.818898 0 1 0 -9.637796,0 4.818898,4.818898 0 1 0 9.637796,0 z" />
          <path
             id="path6118"
             style="fill:none;stroke:#0000ff;stroke-opacity:1;stroke-width:0.09448819;stroke-miterlimit:4;stroke-dasharray:none"
             d="m -142.58761,1261.0777 a 4.818898,4.818898 0 1 0 -9.63779,0 4.818898,4.818898 0 1 0 9.63779,0 z" />
          <path
             id="path6120"
             style="fill:none;stroke:#0000ff;stroke-opacity:1;stroke-width:0.09448819;stroke-miterlimit:4;stroke-dasharray:none"
             d="m 76.631814,1075.7529 a 4.818898,4.818898 0 1 0 -9.637795,0 4.818898,4.818898 0 1 0 9.637795,0 z" />
          <path
             id="path6122"
             style="fill:none;stroke:#0000ff;stroke-opacity:1;stroke-width:0.09448819;stroke-miterlimit:4;stroke-dasharray:none"
             d="m -142.59525,1075.7161 a 4.818898,4.818898 0 1 0 -9.63779,0 4.818898,4.818898 0 1 0 9.63779,0 z" />
        </g>
        <g
           style="stroke:#0000ff;stroke-opacity:1;stroke-width:0.09448819;stroke-miterlimit:4;stroke-dasharray:none"
           id="g6142">
          <path
             id="path6126"
             style="fill:none;stroke:#0000ff;stroke-opacity:1;stroke-width:0.09448819;stroke-miterlimit:4;stroke-dasharray:none"
             d="M -178.11024,965.66929 V 1279.3701" />
          <path
             id="path6128"
             style="fill:none;stroke:#0000ff;stroke-opacity:1;stroke-width:0.09448819;stroke-miterlimit:4;stroke-dasharray:none"
             d="m -178.11024,1279.3701 a 11.811024,11.811024 0 0 0 11.81103,11.811" />
          <path
             id="path6130"
             style="fill:none;stroke:#0000ff;stroke-opacity:1;stroke-width:0.09448819;stroke-miterlimit:4;stroke-dasharray:none"
             d="M -166.29921,1291.1811 H 166.29921" />
          <path
             id="path6132"
             style="fill:none;stroke:#0000ff;stroke-opacity:1;stroke-width:0.09448819;stroke-miterlimit:4;stroke-dasharray:none"
             d="m 166.29921,1291.1811 a 11.811024,11.811024 0 0 0 11.81103,-11.811" />
          <path
             id="path6134"
             style="fill:none;stroke:#0000ff;stroke-opacity:1;stroke-width:0.09448819;stroke-miterlimit:4;stroke-dasharray:none"
             d="M 178.11024,1279.3701 V 965.66929" />
          <path
             id="path6136"
             style="fill:none;stroke:#0000ff;stroke-opacity:1;stroke-width:0.09448819;stroke-miterlimit:4;stroke-dasharray:none"
             d="M 178.11024,965.66929 A 11.811024,11.811024 0 0 0 166.29921,953.85826" />
          <path
             id="path6138"
             style="fill:none;stroke:#0000ff;stroke-opacity:1;stroke-width:0.09448819;stroke-miterlimit:4;stroke-dasharray:none"
             d="M 166.29921,953.85826 H -166.29921" />
          <path
             id="path6140"
             style="fill:none;stroke:#0000ff;stroke-opacity:1;stroke-width:0.09448819;stroke-miterlimit:4;stroke-dasharray:none"
             d="m -166.29921,953.85826 a 11.811024,11.811024 0 0 0 -11.81103,11.81103" />
        </g>
      </g>
    </g>
  </g>
</svg>
